<?xml version="1.0" encoding="UTF-8"?>
<!-- Created with Inkscape (http://www.inkscape.org/) -->
<svg width="1655.1" height="723.31" version="1.1" viewBox="0 0 1655.1 723.31" xml:space="preserve" xmlns="http://www.w3.org/2000/svg"><g transform="translate(638.5 228.58)"><path d="m206.28 494.26-3.6667-0.46877-1.534-0.85439-1.534-0.8544-9.329-0.7821-1.6076-2.2952-5.6551-0.95543-0.82054-1.3277-5.5198-2.6254-6.6667-3.8504-3.0868-1.4138h-1.955l-0.3932-1.0246-0.3932-1.0247-1.974-1.0208-1.974-1.0208-6.2238-6.0124-2.807-2.5634h-1.5594l-1.2673-3.3333h-1.9861l-1.3788-2.5764-2.6681-0.84682v-1.4239l-3-3.0809-3-3.1189v-1.094l-1.6667-1.9807-1.6667-1.9807v-1.8508l-2.5764-1.3788-0.40056-1.2621-0.40057-1.2621-1.3112-0.3429-1.3112-0.34291v-3.5218l-1.6667-1.5446-1.6667-1.5446v-2.0906l-2.5218-0.8004-0.43773-2.919-0.43774-2.919-0.90514-0.34733-0.90514-0.34734-0.45413-2.0676-0.45413-2.0676-3.2175-2.1082v-3.8466l-2.5256-2.5256-0.92476-5.4736-2.0626-1.1543-0.43457-4.7411-0.43458-4.7411-2.9512-2.7495v-2.3557l-1.6052-2.1757-1.6052-2.1757-0.0726-4.7872-0.0726-4.7872-0.61518-3.6667-0.61519-3.6667-0.70479-3.3333-0.70478-3.3333-1.3356-0.91464-1.3356-0.91465 9e-3 -2.4187 9e-3 -2.4187 0.40198-1.5 0.40199-1.5h1.088l0.41946 1.3216 0.41947 1.3216 4.6822 2.2218 2.7421-2.7421-1.5066-4.322v-4.4232l2.3333-2.3333 2.3336-2.3333v-2.8064l-1.8474-1.8474-0.72265-4.1026-0.72266-4.1026-0.74744-0.90061-0.74744-0.90062-0.67654-10.192-0.67653-10.192-2.3413-2.2133-0.32586-8.459-0.32587-8.459-1.3935-0.86869-0.7986-8.6667-0.79859-8.6667 0.1164-18.667-0.6161-9.6998-0.61609-9.6998-0.82022-1.8002-0.8202-1.8002h-2.4526v5.3752l-2.0896 0.80186-1.2604-1.2604 0.88554-4.4277 1.2322-0.32224 1.2322-0.32223v-5.6819l2.9367-1.9499-0.21174-9.8794 2.5514-28 0.0442-14.955 0.0443-14.955 0.64559-9.5791 0.6456-9.5791 0.63372-1.1841 0.63372-1.1841 0.45292-4.9982 0.45293-4.9982-1.0814-3.7197-1.0813-3.7197 0.0102-0.8974 0.0102-0.89739 1.1342-1.7896 2.886 1.7896 1.2722-2 0.0204-13.243 0.7207-6.0452 0.72069-6.0452 2.2253-4.4188 4.3599-3.336 4.4785-0.72675 7.2118-7.5184 3.7747-5h9.9054l3.0892 3.3333h1.0275l2.9398 3 4.851 4 0.0288 1.5049 3.9036 1.6169 2.303 2.5448h1.7271l0.53313 0.95071 0.53312 0.9507 5.0368 3.4167 3.9632 2.0495v1.7591l2.6165 2.3679 0.74347 2.2527 0.74346 2.2527h1.8712l0.78434 3.6667 0.64693 1.3333 0.64692 1.3333 1.0015 1.6667 1.0015 1.6667-0.21481 7-0.2148 7-2.5468 3.82-0.0397 5.8514-0.0398 5.8514 2.3333 2.5822v1.419l1.6667 0.63043 14-1.2907 2.6667 0.0202 9.7781 1.8844 0.93837 1.5183 7.2835 1.5303 1.0508 0.92338 1.0508 0.92339 6.2797 1.1732 1.1951 1.0816 1.1951 1.0816h6.1385l0.48649-1.5 0.4865-1.5-0.0114-9.2247-0.0114-9.2247 1.8064-0.69318v-2.3763l2.3333-2.8813 5.9803-1.3436 2.2339-2.0217 7.1191-0.9308 21.206 0.93109 3.7402 2.7652h4.054l2.7083 2.7083 4.0062 0.80124 1.6189 2.3113 4.3969 0.96571 0.79524 1.2734 0.79523 1.2734h1.566l3.6644 3 7.379 7h1.6896l1.4272 2.6667h1.3683l7.8294 8.1014 0.67321 3.1391 0.67321 3.1391-0.61294 2.6436-0.61293 2.6436-0.0159 2.4622-0.0159 2.4622-1.2002 0.87114-1.2002 0.87113-1.8054 4.6667-1.6512 1.3758-0.73444 2.6454-0.73445 2.6455-8e-3 4.1535-1.3333 1.6951-1.3333 1.695v1.4094l-1.3328 0.71354-1.3333 0.71358v1.8775l-2.4681 1.7423-2.076 4-3.5088 3.4782-3.5088 3.4782-2.1466 1.0186-2.1466 1.0186-0.76988 2.0063h-2.2892l-2.9571 2.778-4.9415 1.1145-4.5733-0.74215-1.7329-2.4741-2.2739-0.4341-2.2739-0.43411-1.1373-1.1779-1.1373-1.1779-4.0699-0.89389-1.3112-2.4499-1.9595-0.43037-1.9595-0.43038-0.79436-0.95714-0.79436-0.95715h-2.2207l-6.7765 6.3621-0.96522 4.3946-1.7432 0.66893-0.41299 2.2014-0.41299 2.2014-2.6384 3.0421v4.3093l-1.6667 1.092-1.6667 1.092v1.483l-1.5 1.4664-1.5 1.4664-3.3187 4.22h-1.6057l-1.8292 2.6115-5.2464 0.83186-5.0592-3.4434h-1.6818l-4.5181-3.3333h-2.2278l-3.3901-2.6667h-1.8135l-4.6428-3.1451-2.8768-0.90568-0.36941-0.96266-0.36941-0.96267-5.3467-0.85497-0.7942-2.5023h-1.4008l-4.5558-4h-2.4648l-0.34868-1.3333-0.34867-1.3333h-2.7446l-1.3521-2.5264-3.9248-1.3682-0.74178-1.386-0.74177-1.386h-1.7905l-1.9089-2.8749-1.72 0.4317-1.72 0.43169-0.42076 1.0965-0.42076 1.0965-1.2874 25.485-0.018 52.192 0.70463 6.904 0.70464 6.904 1.9032 2.9212 0.86062 7.7455 2.4068 2.6667 0.91756 6.9418 1.2513 1.1324 1.2513 1.1324v3.4706l3.1519 5.9894 0.4417 2.433 0.44171 2.433 1.9294 1.6013 0.44756 2.433 0.44757 2.433 2.3198 2.9844 0.45688 3.0466 0.45687 3.0466 1.8922 0.7261 0.74005 2.7484 0.74006 2.7484 2.5344 1.7751v3.2058l2.5585 2.3853 0.94982 4 2.3477 2.6667 0.48297 2.3333 0.48297 2.3333 2.5114 2.3853v3.2944l2.7033 2.3146 0.40935 2.5599 0.40935 2.56 0.91492 0.35108 0.91491 0.35109 0.73656 2.9251 0.73655 2.9251h1.7383l0.74347 2.2527 0.74346 2.2527 1.3082 1.1839 1.3082 1.1839v1.7464l1.3333 0.71358 1.3332 0.71357v1.8508l1.6667 1.9807 1.6667 1.9807v1.2444l7.7826 8.2298h1.4844l0.60715 1.0849 0.60715 1.0849 7.021 1.1099 2.3745 2.1489 7.1231-0.014 4.2922-2.1586 5.0411-0.81057 4.3333-3.4456 4e-5 -1.6198 2.6667-1.4272v-1.8775l2.4681-1.7423 1.1164-2.1667 1.1164-2.1667h1.3321l0.62977-1.6564 0.62978-1.6564 4.2664-1.7409 4.3309 2.0537 1.4629 8.2207 2.0524 5.7793 0.0841 11.06 0.0841 11.06-1.4533 2.3516-1.4534 2.3516v1.5982l-1.6667 2.1851-1.6666 2.1853v1.3461l-1.5718 1.696-1.5718 1.6959-0.43009 3.2422-0.4301 3.2422-2.663 1.6631v3.9368l-1.2557 1.1926-1.2557 1.1926-0.50056 2.3333-0.50056 2.3333-2.4875 1.7423v1.9574l-3.3333 1.2673v1.9432l-2.5985 0.82472-0.39016 1.2293-0.39017 1.2293-4.605 0.86391-1.3011 2.4311-5.0484 0.81116-0.77802 1.2526-0.77803 1.2526-7.9411 0.72007-3.4577 2.2656-18.378 0.43926zm-93.354-137.59-0.0203-2.1667-1.4044 2.4143 0.3682 0.95951 0.36819 0.95951h0.70852zm-515.3 70.338-2.9869-0.2627-0.71351-0.59215-0.7135-0.59216-16.599-1.3552-5.2819-2.7021h-4.5652l-1.5446-1.6667-1.5446-1.6667h-3.2337l-1.6519-1.9904-5.4644-1.4714-1.6134-1.2691-1.6134-1.2691h-2.4561l-2.1009-3.2064-3.5369-0.8877-0.90095-1.2863-0.90095-1.2863h-2.5012l-0.42318-1.3333-0.42319-1.3333h-1.7919l-4.2039-4.3333-5.3616-5.3333-7.2194-7.0607v-1.8495l-2.5341-0.8043-0.41231-1.6428-0.41231-1.6428h-1.9588l-0.86714-5.4228-1.6047-1.6047-0.77196-1.4424-0.77195-1.4424v-4.4407l-1.3156-2.4547-1.3156-2.4547-0.53004-4.2021-0.53003-4.2021-7.7142 0.1594-2.6464 2.8406h-3.2944l-2.2783 2.6609-4.6975 0.88125-5.8764 3.1245h-4.2883l-3.1798 2.4829-8 0.97277-2.2053 1.9684-13.795 1.2715-7.4155 1.3176-7.2512-1.3841-14.371-1.1639-0.95374-0.79153-0.95374-0.79154-9.7212-1.1998-2.0558-2.4872-4.8263-1.5928-0.74272-1.9355h-2.6329l-1.7466-2.3333-2.7921-2.1667-2.7921-2.1667h-1.5051l-6.0041-5.6667-4.5626-4.6667-6e-3 -1.7897-2.6667-3.3901v-2.1733l-1.3024-2.43-1.3024-2.43-0.46346-3.5601-0.46345-3.5602-2.4683-4.6469-0.0234-4.3432-0.0234-4.3432-0.86251-4.016-0.8625-4.016-2.076-3.3013-0.34804-5.5244-0.34805-5.5244-1.7894-2.1534-0.22423-9.3989-0.22424-9.3989 1.3909-3.5247 1.3909-3.5247v-6.4133l2.6444-3.049 0.86724-6.5376 2.3092-1.6174 1.0249-4.6665 2.3092-1.6175 0.40564-2.5246 0.40565-2.5246 2.7003-1.678v-2.6642l3.3333-2.8983v-2.3364l2.6667-0.84636v-1.6697l3-2.8416 1.68-1.7322 7.9867-7.7733v-1.0821l1.6667-0.41831 1.6667-0.4183v-2.0076l1.6019-0.60905 1.6019-0.60904 0.88736-1.4358 2.2971-0.9598 2.2971-0.95979 0.39529-1.0301 0.39529-1.0301h2.3293l1.7984-1.6667 1.798-1.6667h2.3389l4.5181-3.3333h2.3607l1.3629-2.5465 5.5222-0.93298 4.1618-2.3727 8.3463-0.88209 6.3204-1.9179 8.7489-0.014 9.9178 2.5179 3.6667 0.84085v1.9746h1.2381l2.0952 2.0952v6.6673l-1.7346 2.9598-1.7346 2.9598 0.46713 9.1589 0.46712 9.1589 2.2015 3.3333-0.24916 6-0.24917 6-0.1598 10.329 3.6426 3.3776 0.41774 1.6644 0.41775 1.6644 2.5133 1.3451v1.9224l3.3333 2.1841v1.2261l9.6169 9.428 3.0498 1.1595v1.819l3.3333 1.5188v1.7607l5 1.8064 1.4365 1.9604 29.418-0.5479 1.9646-1.6305 18.515-1.3754 4.1294-0.63387 1.5397-3.3793-3.6691-4.5985-1.7085-4e-5 -0.85881-2.3333-2.766-2.834-1.5154-1.9163-1.5153-1.9163-1.9847-2.4213-1.9846-2.4213v-1.4906h-1.9102l-0.89852-3-2.8112-2.2219-0.39515-8.5557-0.39516-8.5557-0.7964-1.8807-0.79639-1.8807 0.0679-4.786 0.068-4.786-1.723-4-1.3237-1.0924-1.3237-1.0924-0.28317-3.9149-0.28318-3.9149 0.76096-2.826 0.76097-2.826h1.2306l1.5132-5.6197 2.5382-3.2267v-2.3075l1.2364-1.5899 1.2364-1.5899 0.79772-2.4467 0.79772-2.4467 1.801-1.4947 0.88014-3.5068 1.292-1.6425 1.292-1.6425v-2.2278l3.3334-4.5181v-2.201l2.5468-2.3048 0.4337-1.7843 0.43371-1.7843 2.6122-2.0256 0.41088-3.4692 0.41087-3.4692-3.5148-1.3363v-1.819l-1.6667-0.75938-1.6667-0.75939v-1.9387l-2.5985-0.82472-0.82472-2.5985h-1.9432l-0.5991-1.5758-0.59909-1.5757-1.0611-0.40717-1.0611-0.40718-0.68167-1.5171-0.68166-1.5171-2.95-4.782-9-8.8456v-1.3061l-1.8054-1.0662-1.5749-3h-1.9373l-0.42341-2.6478-0.4234-2.6478-1.217-0.38627-1.217-0.38628-0.41258-1.2999-0.41259-1.2999-2.5764-1.3788v-3.2864l-1.3333-1.3333-1.3333-1.3333v-1.15l-3.8959-5.1833-2.7086-2.7502 0.0237-6.6834 0.0237-6.6834-0.76932-4.2748-0.76933-4.2748-1.7374-3.3333-0.93752-6.6667-1.8961-2.9531v-4.5456l1.7793-3.2506 1.7793-3.2506 0.17837-0.23549 0.17838-0.23549 10.264-1.151 2.3686-2.1435 7.1912-0.97586 1.6123-1.1293 1.6123-1.1293h7.654l6.7654 2.6667 10.284 8e-3 3.938 2.5958 7.0805 0.88464 3.0346 2.387 6.296 0.94414 2.9844 2.3198 4.817 0.88592 2.3897 2.6406h3.1267l2.5123 2.5123 4.7031 1.5522 0.37136 0.96776 0.37137 0.96775h2.4201l6.7203 4.3333 2.1551 2 4.9245 3.3333 10.424 10 1.3957 1.3333 4.6643 6 1.924 2.0358 0.69023 1.8154 0.69023 1.8154h1.2629l1.641 5 2.3079 1.634 0.42872 2.2853 0.42872 2.2853 0.91476 0.35102 0.91476 0.35103 1.6561 5.0934 1.7061 1.0073 0.47591 4.444 0.4759 4.4439 2.6083 4.4207-0.9774 46.072-2.2984 1.2301-0.34394 3.0515-0.34395 3.0515-2.0538 2.2792-0.97334 4-3.1305 3.769v1.8977h-2.033l-1.2803 3.3675-1.01 0.38758-1.01 0.38757v1.5604l-1.8333 1.6773-1.8333 1.6773-4.2365 4.609-3.1437 3h-1.5299l-0.42319 1.3333-0.42318 1.3333h-2.1032l-2.807 2.7079-4.8427 3.9588h-1.2766l-1.5188 3.3333h-2.0286v2.0286l-3.3333 1.5188v1.6326l-3.3333 2.1841v2.7003l9.3333 9.2046v1.3508l2.6667 1.4272v1.7997l3.2322 2.1178 0.47655 1.5178 0.47654 1.5178 2.8147 2.928 3 3.1189v1.5299l2.5341 0.8043 0.41231 1.6428 0.41231 1.6428h1.2808l2.7209 5.3333h1.2808l0.8124 3.2369 1.8726 0.7186 1.0553 2.6375 1.0553 2.6375 1.8964 0.72772v2.6062l1.6667 1.9807 1.6667 1.9807v2.1827l2.0009 0.7678 2.5908 5.857h1.2911l0.45199 2.6754 0.452 2.6754 2.5465 1.3629v2.5175l3.3333 3.9614v2.0816l1.6667 2.456 1.6667 2.456v2.3008l2.4735 3.1798 0.91346 4.9638 2.0365 1.1397 0.65069 2.8961 0.65071 2.896 1.9273 1.4378 1.3591 7.2406 1.9446 2.1488 0.45955 3.972 0.45954 3.9719 1.0626 1.6365 1.0626 1.6365v26.252l-2.2659 2.5054-0.76314 7.6514-0.76313 7.6514-1.8501 4.4378-0.63179 5.089-0.6318 5.089-1.8842 1.3843-1.6115 4.8933-0.9659 0.80163-0.9659 0.80162v2.4921l-2.6667 1.6654v1.4828l-8.0201 7.5299h-1.3132v2.033l-3.558 1.3528-0.72099 0.98453-0.721 0.98452-8.5275 1.3722-2.7692 1.9396-28.037-0.23294zm-5.8898-85.514 1.5434-0.67657 4-2.4468-0.21143-2.2667-0.21142-2.2667-1.8581-1.442-1.3858-3.6448v-3.4939l-1.2485-1.3763-1.2485-1.3763-1.2566-3.9273-1.9566-0.53041-1.9566-0.53042-6.6667 0.86704-3.3333 2.3349-6.6188 0.9107-4.7145 2.3619-4 2.1783-3.6667 1.6275 0.023 2.041 1.5824 1.5 1.5824 1.5h1.2675l3.2112 2.7296 5.1833 3.937h3.0023l3.1477 2.6223 14.247 0.0444zm-27.457-208.36v-1.0393l-0.67754 0.41874-0.67755 0.41874 0.38356 0.62061 0.38355 0.6206h0.58798zm1233.3 284.04-2.9897-1.6685h-3.6404l-0.6659-1.2442-0.6659-1.2443-5.3397-0.85385-0.7111-1.3288-0.7112-1.3288h-1.389l-3.8974-3.8974v-1.4645l-3.3334-1.5188v-1.9108l-1.2517-0.32733-1.2516-0.32732-2.2484-3.0066-2.2483-3.0066-2.3333-1.2542v-2.5535l-0.9027-0.53312-0.9026-0.53313-1.6874-3.3333-2.8406-3.072-2.7926-2.928-0.9682-3.9404-2.5726-1.8019v-1.4581l-6-5.6675v-1.8731l-1.6666-2.259-1.6667-2.259v-1.5854l-2.486-0.65011-0.4523-2.4113-0.4524-2.4113-1.2271-0.65671-1.227-0.6567-0.424-2.2599-0.4239-2.2599-2.6406-2.3897v-3.8064l-1.3334-1.1416-1.3333-1.1416v-1.7167l-1.3518-1.1574-1.3518-1.1574-0.7124-2.6459-0.7125-2.6459-2.5382-3.2267v-2.2278l-1.6666-2.259-1.6667-2.259v-4.245l-2.7021-1.8293-0.824-9h-1.0101l-0.7319-2.0995-0.73189-2.0995v-3.7058l-1.7894-1.7894-0.77196-1.4424-0.77195-1.4424v-4.1487l-3.3333-6.2616v-6.7287l-2.8218-5.2819-0.471-5.817-0.47099-5.817-2.4429-2.6994h-2.2968l-0.82738 0.99693-0.82739 0.99693-5.314 1.5921-0.32831 0.85555-0.3283 0.85555-4.4508 0.83497-2.2702 2.5086-4.5198 0.84791-1.2611 2.3563-4.6866 0.87921-1.3022 2.4332-4.1555 0.8311-1.7025 1.3392-1.7025 1.3392h-2.4868l-2.6328 2.6328-3.2691 0.8205-1.1524 1.2734-1.1524 1.2734h-1.9342l-3.9614 3.3333-2.8977 6e-3 -5.3333 3.2849-3.013 0.0416-2.2268 2.6007-7.0621 0.88235-2.7041 2.3453-9.0635 0.89309-1.8747 0.97263-1.8747 0.97347h-6.6419l-3.539-1.9472-7.5511-1.4567-0.334-0.8704-0.33401-0.87039-5.4055-0.86437-1.4223-2.6576h-1.9949l-0.81812-2.3333-1.1882-1-1.1882-1-0.29802-4 0.10053-3.0647 0.10054-3.0647 1.2924-1.4902 1.2924-1.4902 0.8241-3.7521 2.5911-2.3449v-2.8131l2.6667-4.9754v-3.3112l-2.0334-5.082 2.7001-8.452v-1.7794l2.5764-1.3788 0.80242-2.5282 4.4382-0.8326 1.1948-1.3203 1.1948-1.3203h2.3577l3.9614-3.3333h1.4273l0.71357-1.3333 0.71358-1.3333h1.8508l1.8845-1.526 1.8845-1.526 1.8333-0.79309 1.8333-0.79308v-1.3619h1.717l4.6163-3.9458 2.0126-0.0542 1.5905-2.5468 4.3969-0.96572 0.87116-1.2438 0.87117-1.2438h3.189l1.7984-1.6667 1.7984-1.6667h1.9462l3.9614-3.3333h2.268l2.2833-2.6667h2.4207l4.5181-3.3333h2.2036l2.9803-2.5848 3.9805-0.87426 0.35727-0.93104 0.35728-0.93105 5.5287-1.5641 1.3878-1.6549 5.4751-1.4743 0.37637-0.98081 0.37637-0.9808 5.2407-0.83802 6.3513-5.8311 4.7924-0.75076 5.3333-2.5183 2.4026-0.73717-0.92632-23.682-1.8096-1.0662v-1.8675l2.3333-1.3056 0.166-28.659 0.47822-2.5492 0.47823-2.5492 0.6422-0.39691 0.64221-0.3969 1.3729-13.876 2.4219-2.6667 0.47752-14.744 2.228-3.4004 1.5074-8.522 1.8122-1.4024 0.5864-2.2629 0.5864-2.2629 3.9338-2.4093 4.7856-2.3528 2.1682-1.9764 0.9552-0.79613 0.9551-0.79614 0.2682-0.80465 0.2683-0.80464 7.549-0.62603 2.0764 1.7471 2.0763 1.7471h2.5974l0.6337 1.6667 0.6336 1.6667h2.033v2.0286l1.6667 0.75938 1.6667 0.75939v1.7104l2.4004 1.7423 1.8708 4.6667 1.9428 1.472 1.022 7.1947 0.049 5.792 0.049 5.792 2.068 8.9171 0.5537 13.416 0.5538 13.416 0.991 2.3333 0.9911 2.3333 0.4195 8.7492 0.4196 8.7492 1.7172 3.7508 1.7172 3.7508h4.3703l2.9326-1.5568 2.9327-1.5568 5.9651-0.94988 1.0662-0.96485 1.0661-0.96484 6.5692-0.80859 3.3421-2.3315 6.2308-0.93436 3.0938-2.3721 2.3333-0.85178v-5.2844l-3.6666-2.5664-15.333-0.87994-3.3333-2.6931-2.3005-0.76492-0.8708-4.6417 0.7968-6.7275 1.015-1.1216 1.015-1.1216 0.6796-3.6203 0.6795-3.6203 1.1556-0.85928 1.1556-0.85927 0.2392-5.2663 0.2391-5.2662 2.5292-2.2889v-1.1928l4.4681-4.6006h1.5319v-1.9658l4-2.0685v-1.2387l4.6993-0.88159 1.6794-2.3977 4.8675-0.91314 1.1127-1.2295 1.1127-1.2295 4.195-0.92139 1.6342-2.333 4.7693-0.89473 0.3436-0.89549 0.3437-0.89549 2.8615-0.72055 2.8616-0.72054 0.8143-0.98118 0.8143-0.98117 5.9066-0.88575 3.3343-2.6228 23.18 0.44322 1.2352 1.0878 1.2351 1.0878 1.4072 0.42764 1.4071 0.42764 3.4063 3.3179 3.4062 3.3179h1.3732v1.3099l3.0816 3.1784 3.0815 3.1784 1.8548 4.3333h1.3485l0.6336 1.6667 0.6337 1.6667h1.9726l0.9386 5 0.061 20.667 0.061 20.667 42.082 0.1442 6.5851 0.97429 1.0752 0.96133 1.0752 0.96134 7.1829 0.79656 4.0616 2.4364 5.9384 0.94274 1.731 1.2746 1.731 1.2746 5.5887 0.7496 1.2342 2.3062 5.3397 0.85385 0.7111 1.3288 0.7112 1.3288h1.9062l0.6725 1.2566 0.6726 1.2566 1.8509 0.45473 1.8509 0.45474 1.536 1.4553 1.536 1.4553 1.5404 1.5 1.5405 1.5h0.9859l7.5279 7.8763 3 3.5703v2.5015l2.7206 2.5347 0.8288 5.1839 2.2602 1.6089 0.4233 3.6016 0.4233 3.6016 1.143 2.5939 1.143 2.5939 0.058 26-2.3762 3.498-0.8166 6.8947-2.2948 1.6073-0.5005 2.3333-0.5006 2.3333-1.2557 1.1926-1.2556 1.1926v1.8458l-3.1306 3.769-0.476 1.9474-0.4761 1.9474-2.584 3.285v1.7179l-1.6667 1.9807-1.6666 1.9807v1.4273l-2.5115 1.3441-0.4291 2.287-0.429 2.287-1.9838 0.76124-0.6401 1.6838-0.6402 1.6838h-2.033v1.279l-3.274 3.721-6.9194 7.6667h-1.6533l-2.184 3.3333h-1.8138l-0.3487 1.3333-0.3486 1.3333h-2.6892l-3.769 3.1409-5.2672 0.96965-0.7675 1.0497-0.7676 1.0497-15.329 0.83747-3.4888 2.2859-9.0469-8e-3 -4-2.1361-13.74-1.034-1.5936-2.0665-7.8439-1.4093-1.4894-1.864-5.0744-0.88956-1.2962-1.2962-1.2961-1.2962h-3.1293l-3.1858-2.763-1.8998-0.37995-1.8997-0.37995-0.3475-0.90563-0.3475-0.90564-2.9286-1.2954-2.9285-1.2954v-1.3829l-3.3333-0.83661v-1.2362l-5.8075-2.4894-0.4087-1.065-0.4086-1.065h-1.995l-0.7147-1.3336-0.7136-1.3333h-1.3404l-1.973 1.4587-1.973 1.4587v1.5088l-3.3334 2.8983v1.3422h-1.8466l-1.0921 1.6667-1.092 1.6667h-1.867l-3.9614 3.3333h-10.613l-3.5968-3.3333h-1.7366l-3.5967-3.3333h-1.8414l-0.4232-1.3333-0.4232-1.3333h-1.8989l-0.8326-1.3333-0.8327-1.3333h-1.6324l-1.5918-3-1.2276-0.87114-1.2275-0.87114v-2.1004l-1.2509-2.0787-1.2509-2.0787-0.905-10.53-2.5932-5.0831v-1.9214l-4.6667-2.7534v-6.045h-8l-1.3401 1.3401-1.3401 1.3401 0.9034 5.6531 1.2192 2 1.2193 2v3l1.3542 1.3542 1.3541 1.3542 0.4021 2.1458 0.402 2.1458 1.1718 1.3333 1.1719 1.3333 0.4681 2.2117 0.4682 2.2117 0.9464 0.36316 0.9464 0.36317 0.7508 2.9819 0.7509 2.9819 1.7136 0.65756 0.4431 2.6231 0.4432 2.6231 2.4892 1.3322 0.8792 4.6866 2.5115 1.3441v2.5174l1.5652 1.8845 1.5653 1.8845 0.4166 1.7104 0.4166 1.7104 1.3515 1.5583 1.3514 1.5583v2.2828l1.2417 1.5899 1.2416 1.5899 0.9836 3.1375 1.5584 2.4313 1.5585 2.4312 2.183 2.4334 0.3799 2.3413 0.38 2.3413 0.9037 0.34682 0.9038 0.34681 1.3543 2.7618 1.3542 2.7618 1.0355 1.8761 1.0356 1.8761 0.9109 0.34954 0.9108 0.34954 0.8011 2.441 0.801 2.441 2.4624 1.7423v1.8345l1.3334 0.42318 1.3333 0.42319v1.8414l1.6828 1.8157 1.6827 1.8157 0.3598 1.4334 0.3597 1.4334 4.4528 1.6101 1.0074 2.5179 1.0075 2.5179 2.114 1.7544v16.444l-3.3334 4.9119v1.767l-1.393 0.74553-1.393 0.74552-6.5473 6.3108v1.0526l-1.6667 1.9807-1.6666 1.9807v2.7448l-3 2.9839-1.5021 1.8102-1.5021 1.8102-0.795 3.1676-2.5342 0.8043v0.98292l-2.2565 2.4636-2.2566 2.4636h-1.2374l-1.9161 2-1.9162 2h-2.3273l-0.8236 2.595-5.9531 0.89271-0.6087 1.0895-0.6088 1.0895-13.762 0.33705zm127.32-188.35 1-0.66485-4.6288-3.8567-2.3523-0.38925-2.3522-0.38925-14.167-0.014-4.1667 0.83333v1.8333h1.2381l1.1333 1.1332 1.1332 1.1332 5.4954 0.9 16.667 0.1464zm32-16.73v-0.58503h-2v2.8299l2-1.6598zm1.9788-3.7517-0.021-2.5-0.9788 1.2941-0.9788 1.2941v2.4118h2zm-1177.3 160.8-3-1.5973-1.5768-0.0376-0.82472-2.5985-2.395-0.76014-0.7745-2.585-0.7745-2.585-0.90972-0.34909-0.90973-0.3491-0.44621-2.3784-0.4462-2.3785-2.6093-1.3964v-2.6616l-2.0493-0.7864-2.1264-4.1718-3.915-3.3333-0.58398-4.6815-0.58399-4.6815-0.47002-1.3185-0.47002-1.3185-2.3032-2.6667-0.44977-2.5206-0.44978-2.5206-1.6326-2.4058-1.6326-2.4058v-1.6713l-2-0.76747v-1.8585l-3.9405-5.1833-1.3968-1.6667-1.3968-1.6667-3.2659-3.7354v-1.768l-2.0277-1.6828-1.4749-5.8574-2.4974-1.3366v-2.1335l-3-2.9865-1.6667-2.4801-1.6667-2.4801-3.3333-4.0361-3-2.9897v-0.94065l-5.3617-5.5731-8.7048-10.651-1.9335-1.082v-1.8439l-2.5985-0.82472-0.40154-1.2651-0.40153-1.2651-2.5985-0.82472v-1.9374l-9.3333-9.5581v-1.0354l-3.6667-3.8308-5.2985-5.8818-1.1698-2.3333-1.1698-2.3333-1.2824-2-0.35489-1.7104-0.35488-1.7104-1.3515-1.5583-1.3515-1.5583-0.014-13.463-0.42582-2.5776-0.42581-2.5776-4.2812-4.2812-3.5192-7.0065v-2.2608l2.3333-2.0929 1.4859-2.5368 25.181 0.0662 6.6667 2.2072 21.131 1.3257 2.9634 1.9417 7.6754 0.95898 1.1151 1.1724 1.1151 1.1724 4.3444 0.93035 1.2861 2.4031 4.5198 0.84791 2.3897 2.6406h2.201l4.5181 3.3333h1.694l0.71358 1.3333 0.7135 1.3333h1.8508l1.9807 1.6667 1.9807 1.6667h1.3986l0.91788 1.3104 0.91787 1.3105 2.9645 1.0966 10.126 9.2825 6.2835 6.3333h1.443l0.42318 1.3333 0.42319 1.3333h1.2879l4.6222 4.6222v1.2879l1.2322 0.39107 1.2322 0.39108 0.75355 1.6538 0.75354 1.6538h1.3727l2.0928 5.2304 1.8964 0.72771v1.6616l2.6036 2.7136 2.3964 2.6896 5.9201 8.9771h0.93539l0.41121 1.6384 0.4112 1.6384 3.3221 3.5846v1.7584l2.5465 1.3629 0.45984 2.7218 0.45984 2.7218 1.8308 0.70256 0.89538 4.8713 1.5704 1.8845 1.5704 1.8845v2.5174l2.6093 1.3964 0.44646 2.4919 0.44647 2.4919 1.9943 2.2853 0.57375 3.0711 0.57375 3.0711 2.6893 3.4189v10.974l-1.2198 1.5899-1.2199 1.5899-0.43981 1.203-0.43982 1.203-0.67456 4.2226-0.67455 4.2226-1.99 3.8156-4e-3 1.4766-4e-3 1.4765-2.5599 1.37-1.5083 4.5702-1.7868 1.483-0.4378 2.9195-0.43781 2.9195-1.9121 0.73374-0.86874 5.4328-2.3982 1.2835-0.84682 2.6681h-1.9432l-1.2673 3.3333h-1.5594l-2.807 2.7194-3.8961 3.3128-1.7186 0.39721-1.7186 0.3972-0.74473 0.9263-0.74474 0.9263-7.8439 1.3838-5.027 1.9371-2.973-0.101zm315.02-20.497-0.51887-1.1954 0.83139-0.83138 0.78453 0.78453-0.28909 1.2188-0.2891 1.2188zm-3.0208-3.9712v-1.2778l1.6667 0.55494 0.3883 2.0006h-2.055zm6-2.8727v-1.0393l1.3333 0.82404v1.2546h-1.3333zm-6.35-24.321-0.44217-0.71543 0.39787-1.5852 0.39786-1.5852 1.4982-2.3487 1.4982-2.3487 1.033-0.0564 1.3003 3.4201v2.029l-4 1.5098v1.629l-1.2412 0.7671zm-3.3804-40.899-0.3877-1.0103 0.43175-0.6986 0.43175-0.69859h1.2546v2.588l-1.3428 0.82987zm613.19-125.24 0.205-2.8333h1.3333l0.20499 2.8333 0.205 2.8333h-2.1533zm-2.795-20.5v-0.66666h1.3333v1.3333h-1.3333zm-143.87-206.74-2.8723-0.68839-0.32936-1.1197-0.32935-1.1197-2.4759-5.3333-0.82148-3.7006-1.3164-1.3164-1.3164-1.3164v-2.6667l-2.9249-2.9249-0.4902-3.6123-0.49019-3.6123 0.85818-4.9351 0.85819-4.9351 2.1889-2.4187v-2.0651l1.7651-1.4649 1.5683 1.5683v2.489l1.6667 2.1851 1.6667 2.1851v1.6638l2.599 3.3041 0.90008 6.0022 3.5009 1.3875 27.553-0.83598 5.7802-2.1146 10.369-1.1129 4.2978-2.5854 5.7702-0.72176 2.2298-1.9678 6-0.98099 1.8845-1.5821 1.8845-1.5821h2.5644v-1.3807l6-2.5719v-1.4226l2.3333-0.85174 1.8845-1.5532 1.8845-1.5532h1.867l1.092-1.6667 1.092-1.6667h1.7568l0.42319-1.3333 0.42318-1.3333h1.9232l2.2833-2.6667h1.561l0.7513 1.9579 4.3914 2.1136 4.5899 2.5528 0.54233 0.9691 0.54234 0.96909 3.8538 0.84644 2.3449 2.5911h4.8295l4.2972-3.9248v-1.9325l2-0.76748v-1.8786l-2-1.6599v-1.2119l2.3333-0.82199 4.3986-3.2538 1.9348 0.74244v4.7554l-1.1572 1.7662-1.1572 1.7662-0.35046 7.3847-0.35047 7.3847-2.9846 2.9846v2h-1.3062l-1.377 2.6991-1.377 2.6992-1.9398 0.74436v1.6342l-5.2551 4.2232h-3.3523l-4.9119-3.3333h-1.7477l-1.0663-1.7987-4-2.1586-5.5607-2.7249-0.30059-0.82556-0.30058-0.82557-2.5048 1.6602-4.8971 2.1101-0.36386 0.9482-0.36385 0.9482h-2.0111l-2.1841 3.3333h-1.5503l-2.315 2.7037-4.0287 0.80573-1.2498 2.3354-4.6866 0.87921-1.3011 2.4311-5.4328 0.86874-0.74438 1.9398-4.8713 0.86518-4.4166 2.6646-8.9167 0.66854-4 2.3363-20.667 0.82317-14 0.62799zm-945.79-2.8335-2.6667-1.4277-0.97958-1.3333-0.0204-12.745-0.9788-1.2941-0.97879-1.2941-0.0424-4.3333 1-0.1022 24-0.34604 4.0144-1.5709-0.21818-8.5652-0.48967-0.79229-0.48967-0.7923-0.53129-19.082-0.5313-19.082 0.48355-2.3333 0.48354-2.3333h2.4667l1.4786 2.511 1.5 1.5475 1.5 1.5475v1.3939h2v1.231l3.2468 3.8586 0.4429 1.7646 0.4429 1.7647 1.233 0.39132 1.233 0.39133 0.39281 1.2376 0.39282 1.2376 1.9692 0.75568 1.2803 3.3675h1.9432l0.82472 2.5985 2.5985 0.82472v1.8988l2.6667 1.6654v1.1699l1.9787 2.4213 1.9787 2.4214 3.3759 3.3835v1.6165h2.0286l0.75355 1.6538 0.75354 1.6538 1.2322 0.39107 1.2322 0.39108 0.0271 0.78841 0.0271 0.7884 3.8503 4.5019 3.3417-0.83872 4.6974-2.9965 0.0282-0.84763 0.0282-0.84762 1.6667-0.75939 1.6667-0.75938v-1.572l3.3333-1.5188v-1.9387l2.5985-0.82472 0.84812-2.6722 4.8868 0.40707-0.4467 2.6667-1.4401 7.4629 2.2949 7.0162-2.0748 2.2926v2.2283h-1.2342l-6.7372 6.6667h-1.3619v1.3778l-4.6222 4.6222h-1.3258l-2.4962 2.6793-6.5096-3.4612-2.9825-3.2181h-1.397v-1.4906l-1.9847-2.4213-1.9846-2.4213-1.5154-1.8593-1.5153-1.8593-6.3738-6.9481-2.44-2.6667-6.8528-8.9618v-1.2817l-2.6667-0.84636v-1.4421l-4.7468-4.6101-0.91983 0.91739-0.42982 18.446-0.42981 18.446-2.4893 9.1625-9.3177 2.4273-13.333-0.06774zm435.39-4.0212-1.5892-3.5935-0.45685-2.08-0.45684-2.08-1.1122-1.1076-1.1122-1.1076-0.66666-2.7189-0.66667-2.7189-17.878 0.34096-4.1223 2.0848-11.723 1.2358-3.866 1.9992-17.744 1.3554-6.6667 1.8189-12.667 0.9698-4 2.3608-16.249 0.86714-5.0845 2.1425-14.724 0.66518-4.2763-4.2763v-5.9403l-2-4.7867v-4.4015l-1.8333-2.1848-1.8333-2.1849 0.1102-8.3663 0.1102-8.3663 1.309-3.3333 0.73532 1.8767 0.73532 1.8767v4.2979l2.711 5.2819 0.48483 3.3333 0.48484 3.3333 9.0935 0.3967 6.8925-1.9344 15.333-0.9226 5.3333-2.4034 14.667-0.98245 2.6667-0.94553 2.6667-0.94552 14.398-1.2743 3.3204-2.1756 11.925-1.1004 3.023-1.9204 12.667-0.93406 2.1412-1.8908 8.5254-1.4195 3.6127-2.5477h2.5273l3.3401 4.0318 0.42612 4.0769 0.42612 4.0769 1.0112 0.74054 1.0112 0.74055 1.2477 10.949 2.2176 3.3844h2.2332l7.9468-2.0777 13.133-1.1481 1.5456-1.4521 1.5456-1.4521 4.1091 0.90252-0.02 3.5607-1.9214 5.3333-0.0586 8.819-6.5502 6.6543-5.1165 0.84536-19.683 0.0146zm309.94 1.9868-3.3333-0.88311-2.9031-1.1768-1.7658-2.6043-1.7658-2.6043 2.27-5.9438-1.4866-11.514-0.17429-10.443-0.1743-10.443 1-1.0025 0.5 0.5013 0.5 0.50131v15.312l2.3333 1.3071v3.3001l3.6284 1.3795 54.705-0.45573 5.3333-2.0959 8.5753-0.95446 3.2711-2.5731h2.0482l8.4331-4.1083 1.0056-1.5584 5.2282-2.6667 5.4847-2.8507 1.7837-2.1493h1.8368v-2.0418l2.3158-0.88866 7.0175-7.1878v-0.97489l4-4.4803v-1.7129l2.6667-1.4272v-1.7997l3.3333-2.1841v-2.4561l2.6667-3.3901v-1.273l4-5.0334v-1.9397l2.6667-3.3901v-2.6943l3.0452-4.1258 1.7387-3.9867 1.8658 2.5516 0.85162 4.5396-1.3328 11.938-2.1527 2.3787-0.90752 4.5792-3.1083 5.8652v1.6216l-2.4735 3.1798-0.91722 4.9838-2.6093 1.3964v1.7491l-1.3333 1.5374-1.3333 1.5374v1.1414l-4 4.1856v1.4815l-2.6667 1.6654v1.7392l-4 3.8322v1.4298l-2.6667 1.6654v1.8989l-2.5985 0.82472-0.82472 2.5985h-1.6697l-2.7119 3-4.4639 2.6667-2.6235 1.5687-1.1741 2.098-1.6004 0.0371-5.2375 3.9629h-1.2188l-3.3901 2.6667h-2.2278l-4.2677 3.1486-6.8266 0.80851-3.1773 2.0818-10.87 1.363-2.7841 1.598-42 0.27637zm-143-1.6857-36.333-0.47564-6-2.7397-3.0014-0.91584-0.68942-1.2882-0.68941-1.2882h-1.9352l-2.0687-4.9512-0.99199-1.0961-0.99198-1.0961 0.18407-10.595 0.18408-10.595h2.5819l0.56243 2.1705 0.56242 2.1705 5.2932 3.5029v1.0048l5.9413 0.89095 4.3921 2.2118 21.333 0.35294 29.333 1.4283 6 0.61499 23.729 0.80242 2.5262-2.2861 7.8566-0.92638 3.7344-2.9375h1.6062l1.5665-3.4381 1.6475 0.55703v14.548l-1.1667 2.3235-1.1667 2.3235v1.7309l-4.6222 4.6222h-0.97278l-4.7383 3.2736-17.333 0.57626zm-657.17-5.7344-2.1667-2.2686v-1.2814l-2.5985-0.82472-0.80308-2.5303-2.5303-0.80307-0.82472-2.5985h-1.952l-0.40906-1.1667-0.40907-1.1667-2.3168-2-0.4422-7.417-0.44219-7.4169 2.0512-0.78712 0.8383 1.04 0.83829 1.04 3 3.0273v1.2998l3.3333 1.5188 0.0282 0.84763 0.0282 0.84762 4.6705 2.9787 4.9397-3.2001 3.3333-3.0609 3.3333-3.0609 0.66666-0.72262 0.66667-0.72261 4.5272-4.2115 7.1398-7h1.333v-1.3218l4.3703-5.7254 5.6297-5.4634v-1.4424l2.6667-1.4272v-1.7997l3.3333-2.1841v-1.903l1.8265-1.0662 2.8672-5.6667h0.60533l2.0342 3.9338-0.0204 29.733-0.97958 1.4614-3.5787 0.87529-3.2106 3.4402-3.2106 3.4402-1.6061 1.3915-1.6061 1.3915-8.111 8.3333h-1.6983l-10.312 10.052-2.7136 2.6147h-1.4798l-3.1399 3.3103-5.3333-0.0686zm999.88-35.774-1.6248-0.86582-0.57711-2.2291-0.57711-2.2291-5.0788-5.2855-1.8508-3.5897-2.3333-1.7423v-1.8775l-2.5133-1.3451-0.86476-3.4455 0.7475-4.1282 0.74749-4.1282 1.2304-1.4868 0.60744-4.8377 0.60745-4.8377 0.69282-0.69283 0.69283-0.69282 5.0522 5.4118 3.3333 4.9008 2.1199 2.2353 0.44343 1.23 0.44344 1.23 2.5367 0.66336 0.71002 2.7151 7.3926-0.61305 2.4415-2.2095 4.2932-0.85864 1.3329-2.4905h1.7698l5.0334-4h1.8167v-2.033l3.3333-1.2673v-1.9432l2.4643-0.78215 0.75354-1.6538 0.75355-1.6538h1.9387l0.84682-2.6681 1.2882-0.68942 1.2882-0.68941v-1.4273l3.3333-3.9614v-2.268l1.3519-1.1575 1.3519-1.1575 0.39418-1.9709 0.39419-1.9709 2.4001-0.76176 0.90262-5.3426 1.7624-1.6342 1.7624-1.6342 2.6803 0.014 6.176 1.8744 29.157 0.29288 2.3333 0.57475v5.0368l-2.5008 2.2632-0.88518 7.8239-0.95601 0.79342-0.95602 0.79342-0.86668 4.866-2.7793 3.0478-0.36133 3.1428-0.36132 3.1428-4.7348 0.39801-1.2359-1.3657-1.2359-1.3657h-2.1637l-2.1121-2.4668-5.2926-0.84631-1.2158-1.3434-1.2158-1.3434h-1.9342l-4.044-3.4028-4.8057 0.4028-1.8487 4-2.2954 2.6667-0.41175 1.1667-0.41176 1.1667h-2.0418v1.3333l-2.5958 2.5958-2.0026 3.8726 1.5317 1.5317h1.6864l0.71358 1.3333 0.71358 1.3333h3.6006l6.6858 3.171 3.3333 1.5367 3.3333 1.8416 1.8333 0.71108 1.8333 0.71109v3.9943l-4.0709 2.1052-2.5958 2.5958h-1.6793l-1.5905 2.5468-4.3969 0.93497-2.1642 1.9052-6.8458 1.0822-2.3233 2.0524-5.5668 0.91216-2.7665-1.4806v-4.3531l-0.71768-0.71767-0.71767-0.71768-5.545 1.2459-1.1811 1.0689-1.1811 1.0689-1.4954 0.74255-1.4954 0.74254-0.214 1.4907-0.21399 1.4907-3.572 1.8465-17.333 0.87042zm-315.29-1.1989-2.2437-0.52997-22.846-0.83879-21.157-0.63174-5.2544-5.2544-0.21011-23.122-0.2101-23.122 0.66794-2.5542 3.7643-1.9466 11.733-0.016 16 1.5137 23.333-1.3572 0.88566 1.096 0.88566 1.0961-0.31512 2.934-0.31511 2.934-2.0628 1.1544-0.45098 3.0073-0.45098 3.0073-1.2548 0.67158-1.2549 0.67152v1.8346l-4.1023 3.4519h-5.3585l-3.5392-2.4917-3.3333-1.024-1.8845-1.5754-1.8845-1.5754h-1.9307l-1.2142 3.1935-0.70234 0.23659-0.70234 0.23658-0.71832 4-0.71833 4-2.0692 1.5956-0.0878 3.8118-0.0878 3.8118 1.7466 0.58514 1.6177 1.4992 1.6177 1.4992 9.6847 0.85645 7.3333 1.9916 9.0662 0.016 3.6465-1.8857 5.1743-0.9707 4.7796-3.0845 4.303-4.0666 2.0646-3.9925h1.2737l0.44064-1.8333 0.44063-1.8333 1.1445-2.3333 1.1445-2.3333 0.40702-3.5914 0.40701-3.5914 2.3323-2.5772 0.4047-7.9703 0.4047-7.9702 1.4426-1.4426 0.86824 1.5716 0.86823 1.5716-0.16499 16.667-0.16498 16.667-0.58688 3.6667-0.58688 3.6667-0.68892 2.6667-0.68893 2.6667-0.40718 3.171-0.40719 3.171-2.1252 1.0985-2.1252 1.0985-2.35 2.6473-2.35 2.6473-9.3001 2.4228-9.3334-0.0596zm506.86-9.672-2.4794-2.3384 1.1096-11.656 0.144-14.197 0.8256-0.99481 0.8257-0.9948 0.6271-5.499 0.6272-5.499 0.7262-0.72619 1.6444 1.6534-0.1485 7.4622-0.1485 7.4622 0.4818 0.72164 0.4819 0.72164 3.6667 0.69253 3.6666 0.69254 62.667-0.40174 48.145-0.87993 0.8136 2.12-0.4138 1.1667-0.4137 1.1667-0.9113 1.0664-0.9112 1.0664-1.1728 11.867-3.3756 6.8003-8.2887 0.86635h-105.71zm-776.56-4.5226-1.2734-0.94382 1.44-2.9747 1.44-2.9747v-1.3724l2.5695-2.3254 0.881-5.2146h1.1969l0.76091-3.0218 0.7609-3.0218 2.3422-1.2535 0.42856-2.2844 0.42855-2.2844 0.96472-0.80065 0.96472-0.80064 0.8422-4.4893 3.1931-3.4454v-2.4182l2.6771-3.4034 0.4226-3.0833 0.42261-3.0832 2.3632-1.6553 0.92058-4.9071 1.8252-1.5148 0.84276-4.866 2.9855-4.6667 0.909-4.866 1.8488-1.5344 0.45472-3.4665 0.45473-3.4665 0.94467-1.4889 0.94468-1.4889 0.52172-2.5111 0.52172-2.5111h2.607l0.14094 7.6667 0.14094 7.6667-2.2e-4 6.3333-2.1e-4 6.3333-1.1735 1.6667-1.1735 1.6667-1.6072 5.5085-1.9939 1.6548v3.768l-3.3333 3.5967v3.5986l-1.2956 1.1725-1.2956 1.1724-0.87144 4.1951-2.3913 4.1618-0.9124 5.4004-1.8765 0.7201-0.85952 5.3751-2.4159 2.7855-0.46114 2.1118-0.46115 2.1118-1.2464 1.5899-1.2465 1.5899v2.3564l4.1203 1.4363-0.55328 1.6598-4.3096 0.88141-12.257 0.90232zm-210.61-1.9892-2.4544-2.1836v-12.786l-2.6667-3.3901 0.0102-1.5615 0.0102-1.5615 1.0733-1.691 96.573-0.0614 20.667-1.092 0.83015 1.0453 0.83014 1.0453-0.083 16.66-0.91635 1.772-0.91635 1.772-8.4112 3.1296-42.667 0.91329-59.424 0.174zm397.99-8.2691-0.4158-4.4527-1.1384-1.1384-20.232-0.83051-0.74376-0.89617-0.74375-0.89617-2.1701-4e-5 -3.8323-4.803 0.67282-14.197 2.4471-6.3333h28.949l1.3817 1.7566 1.3817 1.7566v3.1069l-2.0901 6.1563-0.63266 8.7785-0.63267 8.7785-0.40483 3.8333-0.40482 3.8333h-0.97542zm516.89 3.9652-1.6667-0.30593-2.2745-2.421-3.9291-0.86298-1.555-3.7541 0.46334-2.4698 0.46334-2.4698 2.3691-2.2288 0.79347-3 0.79348-3 1.7071-2 0.47419-2.6667 0.47418-2.6667 0.90771-1.0128 0.90771-1.0128 0.88311-3.9807 0.88312-3.9807 2.3055-0.444v2.0222l3 2.1031-0.10621 6.6856-0.10621 6.6856-0.99147 2.134-0.99148 2.134-0.48848 2.9965-0.48849 2.9965-1.2472 2.3269-1.2472 2.3269v2.3949l1 0.38373 1 0.38374v3.1907l-1.6667-0.1816zm-665.08-1.1358-0.4298-1.1201 2.1381-5.4432-2.0094-6.1467 0.37666-17.317 1.1667-0.22373 1.1667-0.22372v1.8911l2.8032 2.5368 1.0221 2.0016 1.0221 2.0016 1.8194 1.0663v2.4981l1.5754 1.8845 1.5754 1.8845 0.44993 1.4384 0.44994 1.4384 1.8235 0.69975 0.46164 2.2117 0.46164 2.2117 1.0049 1.5839 1.0049 1.5839-1.8073 1.1267-6 0.86868-2.354 2.0622-7.2918 0.60469zm395.41-4.0674-2-0.91579-2.9481-0.0602-2.3853-2.5491-5.0361-0.9394-1.2861-2.4031-3.8728-0.85062-2.2254-2.459-4.6496-0.87227-0.68726-1.791-5.7596-1.4503-0.37317-0.97247-0.37317-0.97248-5.0701-0.80285-5.3333-2.5458-6.3174-0.80427-0.94191-0.9419-0.9419-0.94191-5.4054-0.86436-2.03-1.8124-2.03-1.8124v-3.9008l2.6171-4.8829 0.72891-5.8658 0.72892-5.8658 0.79588-0.50599 0.79589-0.50599 2 0.019 2 0.0191 5.3333 1.9718 10.509 1.2646 2.9353 1.9233 6.2596 0.93869 1.2852 2.4013 4.3444 0.9488 3.0626 2.4007 3.826 0.84034 0.34235 0.89215 0.34235 0.89216 4.9144 1.6219 2.5449 2.179 2.9675 2.7926 4 0.95488 1.0134 1.3069 1.0134 1.3069 4.234-0.8468 0.42752-1.9465 0.42753-1.9465 3.2175-2.1082v-2.4235l2.4008-0.76199 0.84275-2.3306 0.84276-2.3306h1.1044l0.80932 2.109-4e-3 2.1121-4e-3 2.1122-1.8661 3.5768-0.41795 1.9029-0.41794 1.9029 6.0436 6.3074v5.7654l-3 3.5185-7.1227 7.4554-9.544 2.5392-0.33333-0.0385-0.33333-0.0384zm-838.86-3.3346-0.85962-0.97464h-10.984l-3.8116-4.3333-0.63616-5.3333-0.63617-5.3333-1.8796-4.2015v-6.5437l1.8047-2.4681 19.195 1.1579 31.333 0.0552 2.9307-1.0678 1.0347 2.0008 1.0347 2.0008v11.313l-0.65016 1.7101-0.65017 1.7101h-2.6098l-0.39089-1.2316-0.39089-1.2316-2.585-0.77449-2.585-0.7745-0.7628-1.9878h-1.8472l-3.5967-3.3333h-2.631l-1.1763 3-4.9111 5.299-1.9138 3.701h-1.3277l-1.5188 3.3333h-1.819l-1.2031 3.1644-3.4306 0.86102v1.3079l-1.6667-0.0508zm102.69-0.5427-2.1667-0.70767v-1.2145l-2.7152-2.7152-2.7152-2.7152-1.0502-2.0397-1.0502-2.0397-5.0366-4.9022-1.6151-3.0179-2.1508 2.6316-4.6667 1.8768-1.0662 1.745h-1.7504l-5.0334 4h-1.6032l-1.7822 5.4002-1.1004 0.68006-1.4714-3.7469-0.67732-17.333 1.2025-4.5373 43.43 0.29514 16.185-0.94671v-10.981l1.8443-1.5306 0.82238 2.1431v32.491l-1.6667 1.0662-0.67512 1.2316-0.67513 1.2316-5.3164 1.957-13.333 1.7172-1 0.33445-1 0.33444zm1010.7-33.874-0.82442-0.82442v-6.1452l1.8245-2.4951 0.75442 1.4096 0.75442 1.4097v5.1662l-0.84224 1.1518-0.84225 1.1518zm-1048.1-19.365-2.077-2.193 0.68554-2.6667 0.018-15.745 0.66667 0.41202 0.66666 0.41202v9.7073l3.2692 1.4895 2.041 3.9468 4.6898 1.5478v1.8695l-5 2.5227-2.8831 0.8905zm557.52 1.1032-0.39795-1.037 0.42527-3.1027 0.42527-3.1027 1.1881-1.1881 0.44449 1.4004 0.44448 1.4004h1.784l5.5856 4.6667h1.8738v1.1667l-4.1667 0.83334h-7.2085zm-27.858-0.23936-0.39027-0.63147 0.63147-0.39028 0.63148-0.39027 0.78054 1.263-1.263 0.78055zm-559.7-2.6843v-1.294l1.2412-0.7671 0.76312 1.2348-0.81364 2.1203h-1.1907z" fill="#968776"/><path d="m210.87 492.49-1.0774-1.1025-9.1786-1.1826-7.2284-0.0436-2.3842-2.1577-6.1436-0.69247-2.0638-3.1498-2.8467-0.0204-1.4306-0.97958-0.82122-2.2299-1.4885-0.21837-1.4886-0.21838-0.27444-0.83333-0.27444-0.83334h2.9096l4.2015 1.8044 6.6667 2.771 5.0301 0.67902 8.0268-1.2927 0.94678 0.94677 0.94677 0.94677 11.697 1.6603 8.6863-1.6645 5.6299-3.2191 3.7035 0.88516 1.8668 1.4828 8.7999 0.66667v1.8889l-4 1.2808-2.9032 2.6385-11.529 0.71927-2.138 2.1392-10.763 0.43126zm-43.625-15.72-0.44793-0.72476 0.72383-0.72383 0.72383-0.72382 3.3695 1.5352v1.3619h-3.9213zm-3.1703-2.4232-1.8729-0.28154 0.49572-1.4872 1.3815-0.46049 3.2018 2.6661-1.3333-0.1554zm48.726-8.5187-2.3317-0.66666-1.855-1.5474-5.3333-0.91061-1.9322-1.364-1.9322-1.3641-5.8512-0.65951-1.2734-2.3794-3.8728-0.85062-1.1724-1.2955-1.1724-1.2956-1.46-0.0542-4.6163-3.9458h-1.5104l-1.2066-1.3333-1.2066-1.3333h-1.1836l-7.0448-5.2043-4.3374-4.3374-2.0476-3.125h-1.3786l-2.234-2.3003-2.234-2.3003v-1.3096l-1.3333-0.42318-1.3333-0.42319v-1.1064l-1.8333-2.1623-1.8333-2.1623-3.6667-4.3219v-1.4437l-2.6667-1.4272v-1.9062l-2.5115-1.3441-0.43961-2.3433-0.4396-2.3433-1.3046-0.69822-1.3046-0.69823v-1.7698l-4-5.0333v-1.6534l-1.9267-1.5991-0.75938-3.6579-0.75937-3.6579-1.8734-0.71888-1.4743-5.4751-0.8625-0.69392-0.8625-0.69393-0.42064-2.4085-0.42063-2.4085-2.5013-2.2636-0.90988-6.2528-1.8752-2.9212-0.87794-7.4699-2.3676-1.6584-0.67179-4.8477-0.67178-4.8477-1.5764-1.8994-0.57113-5.0928-0.57114-5.0928-2.2684-3.462-0.5621-6.6476-0.56209-6.6476-1.9872-3.0328v-5.7486l-0.70567-5.6279-0.70568-5.6279-1.4822-1.786-0.54375-11.462-0.54375-11.462-0.963-4.6667-0.96299-4.6667-0.43507-6.2335-0.43506-6.2335 0.0666-40.766 0.0666-40.766 0.6302-7.6667 0.6302-7.6667 0.71174-4.3333 0.71174-4.3333 0.5388-12.692 0.53879-12.692 2.2008-3.3588 0.98115-8.6285 0.98114-8.6285 1.2981-4.3511 0.46296-6.9113 0.46296-6.9113 5.2326-1.5677 0.35031-0.9129 0.35032-0.91291 5.3118-0.89741 1.2174-3.2021h2.0748l0.40333-1.0511 0.40334-1.0511 3.1142-1.184 0.88776-3.7138 1.3127-1.6667h6.5034v1.3062l2.6667 1.3604 2.6667 1.3604v1.3392l3.3333 1.2673v1.819l3.3334 1.5188v1.9387l2.6681 0.84681 0.68942 1.2882 0.68941 1.2882h2.5175l3.9614 3.3333h0.98796l2.9897 3 4.1632 3.6452v1.3548l2.3333 2.3745 2.3118 4.9589h1.2377l0.4405 2.6073 0.4405 2.6073 2.5695 2.3254v9.6301l-0.92593 0.76846-0.92594 0.76845-0.74073 2.9417-0.74074 2.9417v9.3309l-0.66666 0.41202-0.66667 0.41202v4.9692l7.3529 3.3973 2.5102-1.7582 17.603-0.173 3.592 2.6557 5.7803 0.97658 4.1618 2.3641 7.1537 0.77847 1.513 1.9901 8 1.3389 5.0729 0.90198 1.4636-0.69936 1.4636-0.69935 2.3333-0.7458v-3.1954l-2.6667-3.3901v-1.9598l-1.855-1.5396-0.4296-2.8648-0.4296-2.8648-0.045-3.7629-0.0449-3.7629 1.9034-1.9034 1.9034-1.9034 5.3263-0.86434 1.7298-2.3638h21.608l4.6667 2.1954 6 0.96721 3.5392 2.5041h2.0519l0.89383 1.2761 0.89382 1.2761 4.9908 0.93627 1.2861 2.4031 4.0747 0.89495 1.5905 2.5468h1.3929l5.9061 6.6667h1.3929l0.83268 1.3333 0.83268 1.3333h1.4794l4.5557 4h1.1422l1.067 2.6667 1.067 2.6667h1.3441v5.3994l-4.6667 4.8051v1.6322l1.7728 1.4713-0.59622 4.0623-2.5099 1.3433v2.0111l-7.3336 7.2753-1.6663 8e-3 -4 2.1798-4.6667 0.82367-0.6607 1.5003-0.66071 1.5003-2.3453 0.74436v1.7241l-3.1906 4.7016-0.4586 2.7144-0.45859 2.7144-2.4306 0.77142-0.73083 4.1967-0.73083 4.1967v2.1772l-2.6393 1.4125-1.6979-0.42615-1.6979-0.42616-0.67253-1.2566-0.67254-1.2564h-2.4399l-3.2267-2.5382-5.6884-1.5317-0.36059-0.93968-0.36059-0.93969-2.8768-0.85942-1.0284-1.2962-1.0284-1.2962-7.5101-0.77511-1.6263 1.7548-1.6263 1.7548h-1.4239l-0.43531 1.3715-0.4353 1.3715-3.3838 1.2865-4.3729-0.82036-0.41077 1.2942-0.41077 1.2942-1.6852 0.76784-1.6852 0.76783h-3.8853l-2.4388-2.6178-7.9464-0.1826-4.4094 2.2694-1.1286-0.3255-1.1286-0.32551-2.0758-0.86178-2.9242 6.4702v3.6206l1.0799 1.6481 1.0799 1.6481 5.2777 0.84393 1.1962 3.1463h2.0217l1.6654 2.6667h4.2672l0.85876 1.3895 5.2199 2.0886v1.6854l-6.803 3.3668-2.5303-2.5303h-4.1248l-0.32881-1.2574-0.32882-1.2574-5.464-0.87372-1.8292-2.6115h-3.1487l-2.109-0.80931v-1.8904l-3.4337-1.3055-1.865-1.8649-6.723-0.92465-0.6793-1.2693-0.6793-1.2693h-1.7391l-0.75938-1.6667-0.75939-1.6667h-2.6952v-1.3807l-5.8075-2.4894-0.81732-2.1299h-1.9949l-1.4272-2.6667h-1.8775l-0.87114-1.2275-0.87113-1.2275-1.3333-0.68471-1.3333-0.68472-4.8154-0.86794-0.81013 0.97615-0.81013 0.97614-0.55231 6.8701-0.55232 6.8701-1.036 4.6667-1.036 4.6667 0.50376 63.068 2.1418 3.2688 1.2669 9.9925 0.93682 1.5019 0.93682 1.5019 0.4169 3.2873 0.41689 3.2873 2.4573 2.2893 0.84488 7.1361 2.03 1.485 0.55815 2.9242 0.55815 2.9242 1.4387 2.6568 1.4387 2.6568v2.3011l2.5491 2.3853 0.46694 2.6667 0.46695 2.6667 0.97815 1.5574 0.97815 1.5574 0.95227 3.2066 0.95226 3.2066 0.99476 0.38172 0.99475 0.38173v1.9826l3.3333 4.9119v2.3008l2.4929 3.1798 0.458 2.0975 0.45799 2.0975 2.4591 2.2254 0.43613 2.3248 0.43614 2.3248 1.912 0.73369 0.73592 2.7648 0.73592 2.7648 1.7276 2 0.95246 4.4766 3.1959 4.7095v1.5176l1.3333 1.1416 1.3333 1.1416v1.9661l1.2419 0.66464 1.2419 0.66465 0.83898 2.0255 0.83898 2.0255h1.2409l0.70211 2.0141 0.7021 2.0141 2.3731 1.27 0.45269 1.8037 0.4527 1.8037 5.2495 5.0945h1.2799l2.586 2.7758 5.7993 0.7205 2 2.4927 6.8504 0.0933 6.8504 0.0934 2.5844-2.3388 6.0532-1.1309 4.5092-4.5092 0.48687-1.534 0.48687-1.534 6.5119-6.4099v-1.3856h1.9531l1.5413-2.8799 0.66139 1.1818 0.66138 1.1818 2.3974 2.3974 0.7886 9.1189 0.79032 5 0.79031 5-0.0268 6-1.6358 8.642-3.9459 6.0246-3.6419 4.3045-1.1322 0.0288-6.3972 6.5333-3.075 0.97598-1.8241 1.8241h-4.331l-2.8036 3.2245-7.7701 0.97237-24.148 0.1366zm8.1401-3.9921 0.82337-0.99211-2.1286-0.81684-4.3066-0.199-0.23043 1.1186-0.23043 1.1186 3.7459 0.5631 1.5034 0.1998zm63.237-275.16 1.3615-2.1504-1.5921-1.0122-2.9213-0.0204-0.39992 0.64709-0.39993 0.64708 1.0444 2.0196 1.0444 2.0196h0.50149zm-5.9872-3.2213 0.90223-2.0383-0.47898-0.42053-4.3333-2.2038v-1.2991h-4.6667v2.6682l5.4941 5.3318h2.1804zm-664.4 240.11-4.8195-0.48577-0.78414-0.78414 5.5124-0.93132 7.2108-2.5344h13.27l2.8183 3.5829-2.3204 1.2986-16.068 0.33987zm1188.9-6.6484-1.2582-1.3945-2.4085-0.38478-2.4084-0.38478-1.4204-0.28764-1.4203-0.28763-0.3506-1.3406-0.3506-1.3406h-6.1578l-0.6337-1.6667-0.6336-1.6667h-3.2877l-0.8958-1.4495 1.212-1.212 4.7399 2.4165 7.3634 2.3161 13.835 0.74644 4.1604 0.0605 4.1604 0.0606 0.8396-1.0508 0.8396-1.0507 2.2661-0.7519 2.2662-0.7519h1.1343v4h-2.5643l-1.9807 1.6667-1.9808 1.6667h-4.7319l-0.9622 1.3737-0.9621 1.3737-7.1513 0.73427zm-1226.7-5.0476-0.66666-0.26812-6.3591-0.8571 0.66254-1.072 6.5505-0.86896 1.573-1.2045 1.573-1.2045 5.9375-2.3287 4.2618 0.79953 1.5775 1.9007-0.81034 2.3973-3.527 2.567-10.106 0.40745zm1236.6-10.009-0.3719-0.96908 0.8928-1.202 0.8928-1.202 1.4691 1.4975 1.4692 1.4975-2.5173 1.3472h-1.4628zm-1214.6-5.112-11.995-0.54652-1.5709-2.1483-9.1065-1.6087-4.6667-2.9438-1.5034-4e-3 -1.599-1.9267-7.1284-1.4798-0.76397-0.92052-0.76396-0.92052-3.8025-0.83517-1.7537-1.6253-1.7537-1.6253h-1.9313v-1.4083l-5.857-2.5908-0.3839-1.0004-0.3839-1.0004h-2.6398l-3.5967-3.3333h-1.5913l-0.75939-1.6667-0.75938-1.6667h-1.9387l-0.82472-2.5985-2.5985-0.82472v-1.9387l-3.3333-1.5188v-1.6961l-2.5985-0.82472-0.40153-1.2651-0.40154-1.2651-2.5985-0.82472v-1.1482l-1.1053-1.1053-1.1053-1.1053-1.5561-2.109-1.5561-2.109-2.0284-4.3333h-3.2043l-0.33251-0.83334-0.3325-0.83333 0.54282 13.333-1.0849-2.5-1.0849-2.5h-4.9891l-0.77205 0.93027-0.77205 0.93026-4.9525 0.91411-2.6667 2.4148-4.4234 0.93634-0.34733 0.90514-0.34734 0.90515-6.2152 0.88956-1.3333 1.1666-1.3333 1.1666-7.1829 0.80013-2.5941 2.3476-11.009 0.85605-1.9119 1.2521-1.9119 1.2521h-27.584l-2.9134-2.637-13.924-0.51543-1.8126-2.5878-3.823-1.0224-0.21554-1.1187-0.21555-1.1187h6.6512l1.5566-1.3565 1.5566-1.3565 4.6667-2.2871 0.22024-1.555 0.22024-1.555-2.3875-2.6381 1.947-1.2315 2.6667 0.0232 9.0991 1.1727 2.5676 2.3236v5.1435l7.4992 3.3165h3.1155l1.348-1.4469 1.348-1.4469 1.2305 1.1136 1.2305 1.1136h10.732l1.6598-2h1.7904l4.7131-4.1381v-1.8619l2.3333-0.102 2.6425-0.49204 0.47658-1.4298 1.7416-1.6428 4.0658-3.2579 0.41371-2.4488 0.41372-2.4488 5.2462-5.4597v-1.3848h-8.123l-3.3901 2.6667h-2.9798l-8.1732 2.611-10.131 0.91803-2.2029 2.3547-7.1022 1.2861-2.4489-0.56903-2.4489-0.56904-5.7095-0.0318-4.8991-2.047-14.427-0.82547-1.7743 2.4265-0.89274-4.7587-1.0364-0.3977-1.0364-0.39771h-6.5995l-0.71052-1.8516-5.9143-2.2587v-1.2874l-3.6667-1.6201-3.8357-3.3155-2.9839-3h-1.3604l-2.1841-3.3333h-1.9693v-1.5264l-1.363-1.4035-1.363-1.4035-3.9408-4.6305v-2.2063l-0.95409-0.79182-0.95409-0.79183-0.71652-3.341-0.71651-3.341-0.8294-1.4488-0.82939-1.4488-1.4478-18.667 0.60362-10.62 0.60362-10.62 2.5739-3.2722v-4.9495l2.763-3.1858 0.37322-1.8661 0.37323-1.8661 2.3354-1.2498 0.46814-2.4954 0.46813-2.4954 2.3977-1.6794 0.4408-2.3496 0.44079-2.3496h1.8092l1.3944-4h1.2409l1.7798-4.3333 4.1834-4.3333h0.7243l4.141-3.8683 0.0288-1.1317 4.3045-3.6299 4.6667-3.336 2.8182-1.2652 0.40333-1.0511 0.40334-1.0511h1.9662l1.7423-2.4624 5.0934-1.6718 0.33888-0.88312 0.33889-0.88312 5.2463-0.88635 1.2808-2.3932 3.3316-0.83618 2.3702-2.4634 7.1686-0.81097 3.3484-2.1939 13.483-1.0506 15.761 0.86833 0.65285 1.1667 0.65284 1.1667h1.837l1.4338 1.8228 1.4338 1.8228-0.35905 1.7952-0.35904 1.7952-4.6487 4.6487-7.3223 2.1286-1.897 1.897-0.45149 2.8234-0.45148 2.8234-2.2048 1.6122v6.574l2.9231 2.9231 0.02 4.3333 2.2404 2.6484 2.2404 2.6484 6.211-5.0894 2.0144 1.6718-0.85784 4.1209-2.278 2-0.77047 1.8108-0.77048 1.8108 0.98437 2.3559 0.98436 2.3559h1.264l1.4356 5.3314 5.2825 5.3892v1.0393l4 4.4803v1.2862l2.7611 2.807 7.3856 7.7872 3.8814 1.3531 1.3521 2.5264h1.9817l1.5188 3.3333h1.6234l1.9901 3 29.558 0.42709 13.66-1.3748 4.9118-2.0523h5.1901l6.0552-0.82996 1.1811-2.647 8.6164-0.42897 2-0.34916 5.4399 0.90126 2.4105-1.7626-1.2138-5.2169-4.6366-2.2624-0.73811-0.63949-0.7381-0.63949-0.43644-2.7293-0.43644-2.7293h-1.264l-1.5915-5.3119-2.462-2.2281v-2.0232l-6.6667-7.6648v-1.1179l-2.6667-1.6654v-1.7747l-1.6667-0.75938-1.6667-0.75939v-1.9817l-2.6667-1.4272v-1.4437l-3.9966-4.8427-2.67-3.2112v-1.7888h-2.0418l-0.43759-1.1667-0.4376-1.1667-5.7496-5.4663v-1.2932l-3.4847-3.0299 0.29023-4.0123 0.29022-4.0123 2.2347-1.2506 0.74728-2.9677 0.74727-2.9677h1.1237l0.75715-2.8333 0.75716-2.8333 1.2685-1.1926 1.2685-1.1926v-3.7414l1.3203-1.1948 1.3203-1.1948 0.42395-2.2599 0.42396-2.2599 2.3333-1.2488 0.81116-5.0484 2.5346-1.5745 0.43431-2.315 0.4343-2.315 1.838-0.70531 0.45573-2.0749 0.45574-2.0749 1.6071-1.7341 1.6071-1.7341v-1.642l2-1.6599v-3.6378l0.71325-2.046 0.71325-2.046 1.7811-0.68347 0.8752-3.9847 1.6253-1.7537 1.6253-1.7537v-4.3011l-4.2228-3.7054-4.3402-1.8134-2.4139-3.778-2.3565-1.7423v-1.8775l-2.6667-1.4272v-1.3309l-4.6974-4.6974-1.6466-2.6083-1.6466-2.6083-14.676-14.622v-1.4196h-1.3778l-4.6222-4.6222v-2.0444h-1.271l-2.7718-5.6667-0.99616-1.794-0.99616-1.794-2.6316-0.83525v-1.8794l-3.1996-2.0964-0.70804-5.601-0.27458-3.7902-0.27458-3.7902-1.1203-1.7098-1.1205-1.7108h-1.8794l-0.9209-2.9015 0.0611-3.0422 0.0611-3.0422 1.527-0.509 1.042-1.217 1.042-1.217 10.605-0.92506 1.0614-1.2397 1.0615-1.2397 4.037-0.0318 5.3333-1.2795 20 1.5337 1.1171 0.94728 1.1171 0.94729 8.7167 1.081 3.5622 2.802h4.307l3.3336 2.6222 5.8462 0.92362 0.82966 1.1679 0.82965 1.1679 5.3407 0.9023v1.1982l4.9464 2.0667 1.2194 1.3089 1.2194 1.3089h4.6147v1.9821l4.3333 1.8114 1.8299 2.2065h1.8456l2.8983 3.3333h1.6697l0.82472 2.5985 2.5985 0.82472v1.3096l4.468 4.6006h1.4421l0.82472 2.5985 2.5985 0.82472v1.5299l3 3.1189 1.3963 1.464 1.3963 1.464 0.48407 1.9702 0.48408 1.9702 1.2863 0.90094 1.2863 0.90095v2.332l3.3333 4.5181v1.5343l2.6406 2.3897 0.8433 4.4952 2.3275 2.9884 0.6797 9.701 1.0878 1.202 1.0878 1.202v4.7426l-0.94702 1.8254-0.94703 1.8254-0.92158 11.502-2.3738 2.6667-0.93634 4.4234-0.9409 0.36106-0.94089 0.36105-0.84646 5.2935-2.4794 1.5484v1.6037l-2.5186 1.7641-1.0132 2.4248-1.0132 2.4248-2.455 0.67872-4.911 0.82682-0.78471 2.4781-0.78471 2.4781-1.5196 1.3513-1.3333 2.6577-1.3333 2.6577-9.7728 0.75974-1.047 1.6942-1.5901 0.79043-1.5901 0.79042-1.476 4.532-2.9207 1.0804-4.6033 3.5111v1.2195l-4.6222 4.6222h-1.3778v1.3333l-5.3333 5.3333h-1.3333v2.6198l2.6667 1.4272v1.3522l7.7669 8.0612 4.9515-1.3672 7.2816-7.2816 0.024-0.57247 0.024-0.57246 2.952-3.5981 4.9088-2.0484 0.83653-1.3535h2.588v1.9073l-3 0.42606-0.20482 1.4373-0.20482 1.4373-3.0977 0.77748-0.70116 2.6812h-2.7915v2.6667h-2.0286l-1.5188 3.3333h-1.9108l-0.7241 2.769-3.1511 1.198v6.6098l2.3333 0.7765 4 4.8212 3.6667 4.3348v1.4599l3.3333 2.1841v1.7568l2.6667 0.84636v1.7068l5.9531 6.5367 1.542 3.6667h1.2409l1.3944 4 1.5362 8e-3 1.1674 1.8291 1.1674 1.8291 1.4643 2.3333 1.4643 2.3333 1.7366 1.0662v1.8314l1.6667 1.9807 1.6667 1.9807v1.9462l1.6667 1.7984 1.6667 1.7984v1.9313l2.6359 2.6359 2.0039 4.3641 1.1984 2 1.1145 2.3333 1.1145 2.3333 2.1341 4 1.7451 1.0362 0.4304 2.2942 0.43039 2.2942 2.5262 2.9127v2.9433l1.6667 2.456 1.6667 2.456v1.4903l1.5768 2.7252 1.5768 2.7252 0.88262 4.8713 1.7769 0.68186 0.44002 3.3171 0.44003 3.3171 2.439 3.1461 0.83026 11.054 2.0375 2.909v13.77l-1.9264 3.7253-0.47808 3.6042-0.47807 3.6043-1.4943 3.2254-1.4943 3.2255-2.7955 1.958v1.2479l-10.577 10.676h-0.87985l-3.3901 2.6667h-2.5154l-4.9714 3.1904-25.345 1.4763-1.9879-0.20118zm-4.6149-53.838 2.7238-0.52808 1.4488-1.2762 1.4488-1.2762 4.7437-4.5394-0.21112-10.416-0.21112-10.416-3-3.809v-5.2412l-0.69013-1.2895-0.69012-1.2895h-1.791l-0.48955 11.751-0.48956 11.751-1.1626-1.8354-0.0204-3.4526-3.3333-1.5188v-2.0032l-3.6667-0.85199-0.8054-1.0093-0.80539-1.0093-4.3892 2.0252-6.6097 0.94308-1.5238 2.0839-7.8665 0.64093-3.769 3.152h-1.9638l-2.3466 2.279-2.3466 2.279 0.21296 2.2201 0.21296 2.2201 4.7463 2.2263 1.7503 2.109h1.5963l1.4492 1.6667 1.4492 1.6667h1.4696l3.5566 2.5325 3.3159 0.61922 15.333 0.1236zm-99.057-17.574v-0.5063h-2.4444l-0.79702 0.79702 0.34668 0.90345 0.34669 0.90344 2.5481-1.5913zm1327.3 70.744-1.651-0.65257-1.601 0.40183-1.601 0.40182-2.4142-2.5914-9.7484-0.97771-3.1798-2.4992h-1.7179l-1.8845-1.5532-1.8845-1.5532-1.1667-0.42587-1.1666-0.42587v-1.952l-1.3334-0.42318-1.3333-0.42319v-1.1885l-5.5253-7.3883h-1.0515l-0.8882-2.7983-1.1008-1.2838-1.1009-1.2838-1.4539-1.5175-1.4539-1.5175-0.4872-1.9662-0.4871-1.9662-1.2256-0.87113-1.2256-0.87114v-1.3986l-1.6667-1.9807-1.6666-1.9807v-1.6937l-2.763-3.1858-0.3733-1.8661-0.3732-1.8661-1.2226-0.65432-1.2226-0.65433-0.715-2.6553-0.7151-2.6553h-1.1785l-0.7435-2.2527-0.7434-2.2527-1.3083-1.1839-1.3082-1.1839v-2.201l-1.6667-2.259-1.6666-2.259v-2.4495l-1.0024-0.38464-1.0024-0.38465-2.0574-7.0772-1.9378-1.6083v-2.3236l-1.39-1.767-1.39-1.7671-0.6763-2.4895-0.6762-2.4895-1.7224-2-0.4723-2.8798-0.4724-2.8798-1.7316-0.6645-0.7206-2.8615-0.7205-2.8615-0.9772-0.81102-0.9773-0.81102-1.5636-7.5321-0.8505-0.68274-0.8504-0.68274-0.4612-3.3333-0.4613-3.3333-1.1882-1.3333-1.1883-1.3333-0.7626-5.0207-1.3736-1.7462-1.3735-1.7462v-5.3295l-1.255-2.0787-1.2549-2.0787-1.471-8.603-0.9898-0.55392-0.9898-0.55393-1.4242-5.2892h-1.2566l-0.6098 3-0.4453 7.6667-0.4453 7.6667-0.5156 7.6667-0.5157 7.6667-2.1821 8.6667-0.31935 1.437-0.31934 1.437-3.8422-3.5892-0.95974-8.2692-2.3454-3.0157-0.35812-5.8732-0.35812-5.8732-0.43736-0.43735-0.43736-0.43736-8.0083-0.0456-2.2596 2.8332-4 0.94167-2.3853 2.5585h-3.2814l-2.5923 2.5923-4.6956 0.88089-0.40099 1.2634-0.40099 1.2634h-2.3178l-4.5181 3.3333h-4.4207l-2.2833 2.6667h-2.268l-1.9807 1.6667-1.9807 1.6667h-2.094l-0.69822 1.3046-0.69823 1.3046-4.8225 0.90471-0.6501 2.486h-5.9082l-1.5446 1.6667-1.5446 1.6667h-2.8471l-2.9768 2.9768-9.0692 0.83129-1.6716 2.286-10.616 1.3436-11.189-0.90656-2.9637-3.1979h-5.423l-2.8482-4-2.2425-0.0938 1.3333-0.57296 1.3333-0.57295 0.90476-0.0938 1.0325 1.0325 1.0325 1.0325 7.0387 1.1456 1.9958-0.37104 1.9958-0.37103 3.1353-2.4334 4.8647-0.82601 7.05-2.5424h4.7415l0.34867-1.3333 0.34868-1.3332h1.76l0.2089 2.1667 0.20891 2.1667 10.052 0.38435 7.5845-3.3542 2.3635-2.1636 5.9275-5.1825 4.7392-1.4978 1.3333-1.5358 3.3333-1.679 4.6667-3.3164 3.0509-2.3217 2.9491-2.8277 2.1754-1.1723 6.3193-5.3333 4.0364-3.6667h1.1356v-3.1778l1.4709-0.38465 1.4709-0.38464-0.89049-0.89049-6.0368 2.8376h-1.9483l-1.0663 1.8054-2.9123 1.528h-3.9924l-2.0178 2.0178-4.1252 0.82505-1.8366 2.6222-8.1236 0.95785-0.82928 1.0476-0.82928 1.0476-4.7414 0.82711-5.2072 2.6548h-4.1028l-5.2305 2.6667h-3.438l-7.462 1.9436-7.1515-1.2833-8-0.83278-2.0197-1.7503-5.6093-1.2603-4.1399-3.4835h-0.89983l-1.9931-4.1667-1.993-4.1667 0.075-4.5922 0.075-4.5922 2.1844-1.2224 0.93239-2.2315 0.9324-2.2315 7.2813-2.1167 0.83551-1.0067 0.83551-1.0067h2.5452l0.39464-1.0284 0.39463-1.0284 2.5844-1.3185 2.5844-1.3185v-1.1758l4-1.3944v-1.2993l5-1.6253 0.55381-0.94267 0.55381-0.94266 3.2257-1.2264v-1.8663l3.9813-0.79626 1.1575-1.3519 1.1575-1.3519h2.1843l4.9119-3.3333h1.7341l2.3449-2.5911 3.8728-0.85061 1.2861-2.4031 4.5688-0.85712 1.574-1.8965 4.7144-1.5559 1.2562-1.2562 1.2562-1.2562h3.9531l0.69822-1.3046 0.69823-1.3046 2.3433-0.43961 2.3433-0.4396 0.62438-1.1667 0.62439-1.1667 5.0484-0.81115 0.83898-1.3502 0.83899-1.3502h3.1422l3.405-2.6784 4.156-0.83119 0.80944-1.1556 0.80945-1.1556 4.6666-1.0011 1.1296-1.188 1.1296-1.188 7.0048-0.9634 1.868-1.868 1.868-1.868v-6.7234l-1.9162-14.379 0.52534-9.3333 1.379-12.667 1.1034-26 1.066-2.0275 1.0661-2.0275 0.72987-5.2476 0.72988-5.2476 1.3948-1.6806 0.6145-8.0962 0.6146-8.0962 1.271-1.6159 1.2711-1.6159 0.4217-2.2476 0.4216-2.2476 1.1536-1.003 1.1537-1.003 4-2.129 4.4574-2.1178 5.4031-5.1918 5.0864 2.5949h1.7567l10.342 11 2.4844 2.6667 0.4538 2.1627 0.4537 2.1627 0.8704 0.50397 0.8703 0.50397 0.6919 15 0.692 15 0.9653 2.6667 0.9654 2.6667 0.4528 12 0.4527 12 0.5903 2.6667 0.5902 2.6667 0.646 2.6667 0.6459 2.6667 0.4562 5.1806 0.4561 5.1806 4.7558 2.4398 10.128-1.9064 1.0464-0.94173 1.0463-0.94174 7.148-1.3556 1.0463-0.92259 1.0464-0.92259 7.0346-0.94025 2.0888-2.0888 6.5358-1.0332 5.3167-4.4149 0.024-4.8028-3.0454-4.5305-10.621-0.77693-10.475-1.8175-0.3594-0.93672-0.3595-0.93671 0.9305-0.58918 0.9305-0.58917 5.3958-0.0204 9.2708-6.1838 8.4724-0.0662 2.419 3.207 0.3877 1.9382 0.3876 1.9382 0.02 10.833 0.5721 0.90281 0.5721 0.90282 11.966-0.4723 1.1012-0.91496 1.1013-0.91497-0.058-21.503-1.0908-5.6369-1.5923-1.326-1.5922-1.326-1.0418-0.0444-0.4089 1.1667-0.4088 1.1667-2.0344 2.1667-2.0343 2.1667-1.4051-0.0276-4-4.7196-1.1667-1.1078-1.1667-1.1079v-1.497l1.3177-1.1924 1.3176-1.1924-0.714-1.1551h-4.9727l-2.6152 1.3333-2.6153 1.3333-2.0514 8e-3 -4 2.6491-0.9101 8e-3 -0.9064-3-1.6802-1.7955-1.6802-1.7955 0.6208-6.4607 6.2228-6.1348v-1.4268l2.6666-0.79895 2.6667-0.79896v-1.1866l1.8333-0.80355 1.8334-0.80354 1.6666-1.0894 1.6667-1.0894 4.9838-0.8737 0.6982-1.3046 0.6982-1.3046h2.094l3.9614-3.3333h3.0513l1.6133-1.2691 1.6134-1.2691 5.4826-1.4763 0.3427-0.89289 0.3426-0.89288 6.9538-0.82358 3.1178-2.0428h5.3152l7.6785 2h6.2199l4.3443 0.86887 0.3223 1.2322 0.3222 1.2322h1.1967l11.314 11.163v1.3484l1.3333 0.34867 1.3333 0.34868v2.1099l6 7.8895 0.01 20.896 0.01 20.896 0.5083 0.79971 0.5084 0.79972 45.427 0.40057 1.1817 0.98155 1.1816 0.98155 9.0299 0.82769 3.6561 2.8759h4.2828l1.5145 1.3135 1.5146 1.3135 2.1749 0.58982 2.4357 0.40968 2.4356 0.40968 0.7026 1.8308 5.4254 0.91663 0.5004 0.77479 0.5003 0.7748 5 2.3118v1.4243l4 1.3944v1.8711h1.98l7.02 6.6768 3 0.8011v1.3818l1.3842 1.4035 1.3841 1.4035 1.6159 2.5296 1.6158 2.5296v1.5215l1.412 1.5029 1.4119 1.5029 0.5896 3.1559 0.5895 3.1559 0.9267 1.0508 0.9266 1.0508 0.7385 7.702 0.7386 7.702v13.839l-1.4874 12.09-1.636 1.3333-0.866 2.6667-0.8659 2.6667-0.8789 0.51813-0.8789 0.51812-0.4377 2.3333-0.4377 2.3333-1.1791 0.63102-1.1791 0.63101-0.4227 1.6843-0.4227 1.6842h-1.2808l-1.3605 2.6667-1.3604 2.6667h-1.0809l-0.8302 1.5511-0.8301 1.5511-4.565 1.6507v1.28l-3 1.3289-5.3334 4.0448-2.1666 1.3625-2.1667 1.3625v1.8056l-5 1.3886-2.5617 8e-3 -2.4024 2.1741-14.479 0.96774-1.1521 0.64477-1.1522 0.64476-16.036-2.33-1.1429-1.0343-1.143-1.0343-9.8625-1.3988-1.2269-1.317-1.227-1.317h-4.7377l-1.596-1.2554-1.5959-1.2554-7.3518-0.91854v-1.2216l-5.2261-0.83569-2.765-3.1801h-4.1337l-0.6858-2.6225-2.856-0.89327-3.769-3.1509h-2.5974l-0.6501 1.7101-0.6502 1.7101v7.4225l2.6936 4.3584 0.9498 0.36445 0.9497 0.36444 0.8802 4.6921 2.8821 1.689 2.882 1.689h2.5302l1.5044 1.6013 1.5043 1.6013 5.916 1.4897 1.1539 1.0039 1.1538 1.0039 1.8516 1.5766 1.8515 1.5766 3.8476 1.5937 0.4391 1.7765 0.4392 1.7765 4.0037 3.6823 2.7837 0.73896 2.7836 0.73896 3.5205 0.0386 2.1462-0.82357v-3.1203l1.841-2.5177 10.419-0.39709 0.67-0.67003 0.6701-0.67002h1.7333v3.9531l-2.6657 1.4265v1.8744l1.2306 0.76053 6.4297 0.75619 0.398 0.39804-17.725 0.76021-16.276-0.26294-0.862-1.0901-0.8619-1.0901-7.1203-0.8816-4.86-2.6048h-4.1733l-3.1798-2.4929-4.6666-0.99574-1.1927-1.2557-1.1926-1.2557h-2.42l-3.5968-3.3333h-1.4576l-2.807-2.774-6-3.8684-1.6667-0.0242v-1.8696l-4.0626-1.4162-3.3962-2.6715-6.0087 0.82358 0.2338-2.9332 0.2337-2.9331-2.8161-0.40197-2.1064 1.7725-2.1065 1.7724-4.5487-0.85333-1.5188-4.602 0.8734-2.7516-0.7981-0.96157-0.798-0.96156-3.2066 0.80482-3.9416-1.6326-0.8912-4.7507 2.7256-2.2071-4.6438-3.7054-1.7783-0.47526-1.7782-0.47527-0.8422-3.9047-0.158-8.5617-1.0112-1.1173-1.0111-1.1173-0.4196-6.3867-0.4195-6.3867-0.5415-0.87623-0.5416-0.87623-0.657 0.66109-0.6571 0.6611-0.6905 4.3333-0.6906 4.3333-1.3468 2.641-1.3468 2.641v2.3347l-1.2734 3.525-1.2735 3.525-0.4117 3.0177-0.4118 3.0177-1.0462 1.9823-1.0463 1.9823-0.4355 2.9446-0.4356 2.9445-0.6889 0.22966-0.689 0.22965-0.7308-5.458-0.7307-5.458-2.2016-1.6098-0.904-5.1986-0.904-5.1986-1.2026-0.87935-1.2024-0.87942h-4.754l-3.9912 1.2426-6.6666 2.5193 0.103 2.1629 0.1031 2.1629 2.1272 2.3505v3.9056l1.6667 3.1308 1.6666 3.1308v1.3352l1.6667 2.456 1.6667 2.456v3.0953l1.2556 1.1926 1.2557 1.1926 0.4539 2.1206 0.4538 2.1206 0.9524 0.79039 0.9523 0.79039 1.4694 5.4568 0.8632 0.69392 0.8632 0.69393 0.8073 2.5467 0.8074 2.5467 1.8658 0.71597v1.5983l1.6666 2.259 1.6667 2.259v2.332l2.5522 1.7876 0.9356 4.9872 1.1666 0.81706 1.1665 0.81705 0.5097 2.3333 0.5098 2.3333 1.2465 1.5899 1.2464 1.5899v2.2922l1.6611 1.7923 1.6611 1.7923 0.7982 3.1802 1.7539 0.67306 0.8846 4.0275 1.1955 1.5313 1.1956 1.5313 0.4699 1.5 0.47 1.5h1.2164l1.3185 2.5844 1.3184 2.5844 2.0568 0.78927v2.6616l1.3334 0.71358 1.3333 0.71358v1.6701l3.9458 4.6163 0.054 1.6198 2.6667 1.4272v1.8632l2.6681 0.84682 1.3788 2.5764h1.8927l0.4479 2.5 0.448 2.5 1.0155 1.1629 1.0154 1.1629 0.3222 5.02 0.3221 5.02-1.0804 1.1938-1.0803 1.1938-0.7863 2.29-0.7862 2.29-1.3887 1.5389-1.3888 1.5389-1.5 0.61125-1.5 0.61124v2.033h-1.8031l-7.479 6.7882-0.799 2.5176-3.1261 0.96188-3.1262 0.96187-5.1592 2.7079-1.087 0.95243-1.0871 0.95242-1.3333 0.36372-1.3334 0.36371zm104.82-165.95 2.5-0.69428v-2.3424l-2.1667-2.069-2.1666-2.069-9.3334-1.4642-16.765-0.64433-1.8498 1.9308-1.8499 1.9308 1.5634 2.2284 1.5633 2.2284 0.1583 0.26714 0.1582 0.26713 4.1774 0.47498 4.1773 0.47499 17.333 0.175zm27.592-10.965 0.3838-1h1.9267l1.3478-3.8664 2.3842-0.62346 0.3983-2.5884 0.3984-2.5884-0.4843-2.2903-0.4842-2.2903-3.9629-1.0649-1.1459 0.36112-1.1459 0.36111-1.3674 4.9233v1.524l-0.9468 0.36335-0.9469 0.36335-0.4619 3.6972-0.462 3.6972 0.7758 2.0216h3.417zm-1169.4 147.89-1.3333-0.35196-0.56711-0.53573-0.56711-0.53574 3.1342-0.97831 5.3333-3.7036 9.3333-2.8686 5.3333-2.4543 4.4649-1.4374 2.5351 1.3568v1.0611l-3.3245 1.7792-2.0395 3.1127h-1.8794l-0.40099 1.2634-0.40098 1.2634-4.9545 0.91934-2.4724 2.2205-10.861 0.24117zm10.598-22.723-0.36051-1.1667-1.0383-2-3.5383-0.42248-2.0892 2.0892h-2.6133l-0.38373 1-0.38374 1-3.524-0.0454-11-10.413v-2.2087l-2.3653-2.3653-1.7093-5.7052-1.7681-0.67848-0.42392-2.651-0.42391-2.651-1.9116-0.73355-0.73301-2.221-0.73301-2.2211-0.88895-0.73775-0.88894-0.73776-4.332-8.9645-1.1821-2-1.002-2.182-1.002-2.182-1.009-1.1513-1.009-1.1513-3.3867-4.3138-1.2825-4.6448-3.5189-5.3747h-1.1073l-1.0464-2.6152-1.0464-2.6152-1.728-0.66311-0.8611-4.5901-1.3203-1.1948-1.3203-1.1948v-1.5529l-3-2.8208-4-5.5088-1.1667-1.2887-1.1667-1.2888v-0.81374l-4.103-6.3319-5.1807-2.9117-0.44849-2.3907-0.44849-2.3907-2.486-0.6501v-2.3479l-1.044-0.8664-1.044-0.86641-2.1106-4.0971-2.4681-1.7423v-1.9244h-1.6328l-4.3672-4.9089v-1.9441l-2.3333-1.7324 0.88807-1.4525 0.88807-1.4525-0.80474-0.75473-0.80473-0.75474-0.30556 0.83333-0.30555 0.83334h-2.0443l0.33147-1.7339 0.33146-1.7339-4.6378-1.9378-10.536-10.41v-1.3753l-0.91657-0.35172-0.91657-0.35173-0.46478-3.72-0.46479-3.72-0.9996-0.9996-0.99959-0.9996h-1.9937l-4.5777-3.4916v-4.4478l3.3939-3.3939h13.986l1.7558 1.1505 1.7558 1.1505 25.707 0.83494 1.6646 1.0907 1.6646 1.0907 11.003 1.231 0.79674 1.0896 0.79673 1.0896 4.8594 0.78858 0.62317 1.1644 0.62316 1.1644 4.7729 0.89539 0.36685 0.95598 0.36684 0.95598 5.5296 1.4774 1.1926 1.2685 1.1926 1.2685h2.6236l1.4492 1.6667 1.4491 1.6667h1.8014l0.7678 2.0009 2.7618 1.3542 2.7618 1.3543 3.6667 2.03v1.9272h1.3705l13.188 13 7.7345 7h1.6731l2.2328 4.3333 2.4681 1.7423v1.8775l1.3333 0.71357 1.3333 0.71358v1.8775l2.4004 1.7423 1.7656 4.3436 5.1673 5.3246v1.3648l1.6667 0.63366 1.6667 0.63367v3.6528l3 3.1189 2.9966 3.0778 0.4231 2.1155 0.42309 2.1155 2.4905 1.3329v2.8244l1.692 3.731 1.692 3.731 0.66045 1 0.66044 1 2.2951 3.8755 2.1923 2.3168 0.47433 2.9038 0.47434 2.9038 1.2628 2.0787 1.2628 2.0787v4.189l1.3333 1.1416 1.3333 1.1416v5.932l-1.1075 1.2238-1.1075 1.2238-0.75432 1.4954-0.75432 1.4954-7.2764 0.147-2.3333 0.1864v2.6667h1.3333v4.5724l-5.4974 8.2764-0.95056 3.4845-5.9836-0.41992-0.95089 1.1517-0.95089 1.1517 1.6667 0.56095v1.8889h-1.3752l-0.76748-2h-2.3608l-1.3894 1.6741-0.89466 3.5646-4.8792 2.2868-1.0662 1.8078h-1.9756zm-30.776-0.83334-0.83268-1.3333h-1.846l-0.40466-1.0545-0.40466-1.0545v-2.9576l1.5683-1.5683 0.88253 0.73243 0.88253 0.73244v1.516l2.6667 1.6654v2.5463l-0.40465 1.0545-0.40466 1.0545h-0.86996zm-364.39-4.1552-0.38925-1.4885 1.2897-1.2897v4.2667h-0.51116zm355.67-17.178v-1.6667l0.67252 1.6667-0.67252 1.6667zm1081.9-41.212v-1.2846l-5.3334-0.85284v-2.1587l4.8922 0.79388 1.0264 1.6609 2.8741 0.69318 2.874 0.69319v1.3333l-6.3333 0.40639zm-1108.6-2.0465-1.6298-0.45131-1.0623-4.0996-9.0114-9.4246-5.3333-6.2025-0.5367-1.4486-0.53669-1.4486-4.1882-4.3333h-1.298l-7.1071-7.6366v-1.1462l-8.6296-8.5451-1.1034-2.1694-1.1034-2.1694-5.1636-4.5568v-1.8184l-0.90477-0.34719-0.90477-0.3472-1.7642-5.3455-1.1356-0.60773-1.1356-0.60774-0.41379-2.2057-0.4138-2.2057-2.6766-2.2918 0.87884-5.6663 0.47507-1.3251 0.47508-1.3251 2.1732 7.4757 2.0135 1.671v1.642l3.2999 3.8614 1.7001 2.022 2.5601 3.978 2.4399 1.7423v1.6037l2.6667 1.6654v1.9887h1.5892l5.0775 5.4451v1.1317l2.6667 0.84636v1.8203l2.6681 0.84682 1.3788 2.5764h1.3577l4.5954 3.6667 4e-5 1.1321 6 5.6675v0.99913l6 5.6675v2.0371l2.0879 1.7328 2.0927 4.0971 0.90968 0.53312 0.90968 0.53313v1.4475l3.403 3.1538-0.40298 6.8943-0.66667 0.14902-0.66667 0.14901zm1117.6-0.0628-1.3184-0.46972 2.9978-1.6044 1.3058 0.80702v1.112l-1.6667 0.6248zm-17.682-4.0124v-0.66667h1.2546l0.4121 0.66665 0.412 0.66667h-2.0787zm-4.4685-1.7997-1.4685-0.28478-0.4097-1.2911-0.4098-1.2911h-2.5514l-0.8124-3.2368-0.9399-0.36065-0.9398-0.36065v-2.0418h4.2215l1.2609 1.1667 1.261 1.1667 4.5836 4.6667v2.3333l-2.3333-0.1816zm32.468-4.161v-0.62732l0.6667-0.41202 0.6666-0.41202v2.0787h-1.3333zm-626.29-40.636-0.36885-0.59681 0.99617-0.38227 0.99618-0.38226v1.9582h-1.2546zm-612.21-35.57 0.27778-0.83333h2.4444l0.27778 0.83333 0.27778 0.83334h-3.5556zm3.6292-2.2596-0.42632-0.42632 0.7091-1.1474h1.9213v2h-1.7778zm-9.7799-2.869-0.98395-0.63625 3.3012-1.2266 1.723 0.65574-0.24706 0.7512-0.24707 0.75119-1.2811 0.17049-1.2811 0.17048zm1207.1-71.547-0.3628-0.94548 0.5772-0.93398 0.5772-0.93397 0.8325 0.83252 0.8326 0.83253-1.047 1.0469-1.0469 1.0469zm-263.15-193.08-1.6667-0.45988-0.39952-4.7075 4.4942-4.9065h2.6987l2.4133-2.6667h1.4726l1.6654-2.6667h1.8254l0.82992-1 0.82993-1h7.7469l0.84682 2.6681 2.243 1.1725 5.3333-0.47876 19.464-1.0285 2.5024-2 4.279-4.2013 5.7542-0.94381 2-1.6863 4.9814-1.5992 0.7757-1.2551 5.0849-2.5941 0.39383-1.5692 0.39384-1.5692 7.227-7.5818h1.4297l1.4272-2.6667h1.5658l5.3873-5.8092 2.9123-1.5241h0.62817l5.7928 4.7108 3.6897 3.2892 1.6436 8e-3 2.2188 3.9-0.35152 2.6207-0.35151 2.6207 1.1248 1.7167 1.1248 1.7167 6.8055-0.47058 6.3319-6.7794h2.7639v1.2546l-1.1611 0.71761-0.74672 3.7336-1.7128 1.8481-1.7128 1.8481v1.6106l-2.6667 1.6654-3e-3 0.82768-3e-3 0.82769-4.0614 4.3333h-3.7335l-4.0921-1.4265-0.35175-0.91663-0.35174-0.91663-4.7729-0.8954-1.3441-2.5115h-1.694l-4.5924-3.434-5.2866 0.67886-0.76355 1.0442-0.76356 1.0442h-1.3009l-6.5522 5-0.66666 0.71331-0.66667 0.71331-4 2.551-4.6667 2.3365-8.1846 4.5473-4.0566 0.89098-0.73648 0.88741-0.73649 0.88741-4.801 0.90068-3.4848 2.4392-9.7504 0.8167-4.9163 2.0551-24 1.2232-7.3333-0.09496zm-945.92-3.6451-0.75071-0.90456 0.43058-2.1529 0.43059-2.1529 3.1437-1.4324v-1.0679l5.6667-1.5544 14.616 0.22971 0.53191 0.53191 0.34284 4.2711 0.34285 4.2711-3.1666 0.84753-20.837 0.0182zm439.25 0.33085-1.6667-0.50735 0.446-4.5856 2.3874-2.6667 1.6317-3.1586 6.2016 1.0523 10-0.02242 5.3333-2.7548 1.506 1.2467 0.38144 1.9072 0.38143 1.9072-1.3315 4.8224h-2.1133l-4.1574 2.5288-17.333 0.73812zm310-2.15-6.3333-0.56629-3.0472-0.74724-1.3848-3.6294 1.6454-5 4.7866-0.0074 4.9896-1.3857 0.82202-3.2752 0.0942-3.1658 0.0942-3.1658h2.6066l0.39249 1.6626 0.39248 1.6626 6.6085 1.0232 10.667-0.768 10.667 2.0861 5.4118 2.28e-4 2.5882 1.9576 3.8426 0.0424 4.1574-2.566 12-2.2366 8.6399-0.56193 5.3601-1.4049 4.9898-3.4049 4.0239-6.075-0.40223-2.1441-0.40224-2.1441 3.0004-0.95231 1.0753 1.4255 1.0753 1.4255 4.3065-0.8613v-1.2111l4.6222-4.6222h1.2879l0.42319-1.3333 0.42318-1.3333h1.2523l2.8983-3.3333h1.6562l1.5049-4.56 1.9318-1.6032v-2.4278l2.6401-1.8492 2.0444-4.8931h1.3154v-2.0637l3.1252-2.9363 0.82196-5.1912 2.486-2.8088 0.8901-2.8333 0.89011-2.8333h1.1199v4.5l-0.41667 2.0833-0.41667 2.0833h-1.7161l-0.91254 5.4013-1.1913 1.1327-1.1913 1.1327-0.48518 2.3333-0.48519 2.3333-1.683 2-0.80265 2.5-0.80266 2.5h-0.93858l-7.4339 9.6667-0.9473 3h-1.1536l-0.74968 2.362-3.6735 4.2588-2.6667 3.5211-4.6118 5.1914h-0.99426l-3.2243 3-2.4691 1.6667-2.4691 1.6667-3.3801 2.9573-2.518 0.79918v1.1401l-5 1.6053-2.0488 1.7806-4.6179 2.1308-3.3333 1.9004-5.3333 0.04894-6 2.7563-13.333 1.0927-30.667 0.63095zm-151.33-1.36-5.6667-0.41702-26.667-1.4763-4.9514-0.7987-4.7153-4.319v-1.4293l-2-0.76747v-2.6298l0.59584-0.36825 0.59585-0.36825 4.7231 1.9734 9.7518-2.1366 2.6667-1.637 5.9156-0.93088 4.4618-2.1173 13.623 0.60857 5.7749 3.6493 4.9024 0.06766 5.276-2.2044 0.99839-1.615h30.604l0.99157 0.99183-1.1504 1.2712-1.1505 1.2712 0.87677 0.54589 0.87676 0.54589 8.3987 0.87518 1.6013 2.1727 5.2565 0.32602 1.5112-5.2644 3.5786-0.95707 1.3204 2.4672v2.5596l-3 3.3548-2.6667 3.7103-4 1.8762-3.0424 1.7308-49.624-0.14406zm-283.33-1.2496-0.71358-1.3333h-2.1388l0.40702-3.4366 0.40701-3.4366 2.9374-3.1268h2.6307l8.1369-2.8985 0.54992-0.42922-1.5384-3.3764 3.1787-1.2085 3.1431 0.7673 2 1.5618 5.9649 2.5835h14.702l10-5.1068 12.667-3.1632 4.6736-5.2004 10.597-0.68007 0.94601-1.4248 0.94602-1.4248h13.084l3.4866 1.3256 1.107-1.9288 1.107-1.9288 6.4392-0.85418 1.3346-1.3346 1.3346-1.3346 7.2916-1.3479 0.65975 0.40774 0.65974 0.40775v1.483l1.9731 2.1802 1.0134 5.2957 1.0134 5.2957-0.014 8-0.41323 2.5-0.41322 2.5h-1.8001l-0.406-1.6176-0.40599-1.6176-2.2134-1.919-3.3333-0.75547-5.3333 2.0322-13.604 1.0166-3.3285 2.1809-12.751 1.4218-4.7592 1.9885-18.224 0.75604-4 1.9335-12 1.3389-4 2.0753-19.333 1.0044-5.1628 2.1617h-7.7903zm-246.24-1.1687-1.9092-0.2678-0.3294-1.2596-0.32941-1.2596-2.3787-0.75498-0.6858-2.6225h-2.0994l-0.84544-3.3685-2.5133-1.3451-9.6e-4 -0.80988-9.7e-4 -0.80988-9.9981-9.7425v-1.8773l-2.5764-1.3788-0.40056-1.2621-0.40057-1.2621-2.6225-0.6858v-2.1808l-9-9.3956-2.4889-1.3453-0.95949 0.9595-0.9595 0.95949-0.77866 7.5445h-1.0296l-0.8843-5.2342-0.56748-6.8829-0.56747-6.8829-1.6603-12.874 0.68734-2.2296 0.68735-2.2296 0.55289 1.3333 0.5529 1.3333 3.4152 3.6431 2.8909 3.2962 0.41326 1.3021 0.41327 1.3021 1.9492 0.748v1.6616l1.335 1.3568 1.335 1.3568 4.6413 6 2.3553 3.1871 1.383 1.4064 1.383 1.4065 0.4294 1.1667 0.4294 1.1667h2.0418v2.089l1.7458 2.2888 1.7458 2.2889h2.3639l0.39675 1.5808 0.39676 1.5808 4.7974 3.6592-0.43768 3.7711-0.43768 3.7711 3.783 4.7603 4.2101 4.2101h6.104l5.1758-5.3333 1.156-0.02426 5.8322-3.9521 0.58392 0.36088 0.58391 0.36088v1.9543l-3.3333 1.2673v1.8775l-2.7656 0.72322-0.72322 2.7656-1.5112 0.02882-1.825 2.1523-1.825 2.1523-1.6834 2.1734-3.3333 0.59231zm-120.98-2.5293-0.77368-1.698v-1.8474l2.6667-0.84637v-0.98293l4.5132-4.9272h0.95189l3.6826-3.9422 0.82043-1.9807 0.82043-1.9807 2.5448-2.303v-5.0604l-2.1675-1.213 3.5008-0.87866v-2.6413h1.2665l6.2333-4.2068 1.2813-2.8966 1.2813-2.8966h1.2455l0.4183-1.6667 0.41831-1.6667h1.9803l0.34056-1.3023 0.34055-1.3023 3.1941-2.0928v-1.6485l2.6667-1.6654v-1.283l4.3333-6.3723 1.1206-0.81988 1.5461-3.1011 1.3333-0.079 0.54333 4.6667 0.54334 4.6667-0.44912 18.374-3.9709 3.2447-1.0444 0.048-4.6222 4.6222v1.2879l-2.5985 0.82472-0.82472 2.5985h-1.4421l-4.468 4.6006v1.3267l-3.0678 1.7394-4.4389 2.6667-4.16 4.5867-4.4392 4.08-3.1847 2.8966-2.5863 0.82087-0.748 1.9492h-3.8278zm75.226-7.9131v-1.0556h2.1111l-0.52778 1.5833-1.5833 0.52778zm949.67 0.27778-0.41202-0.66667h2.824l-0.82404 1.3333h-1.176zm-323.67-3.3333-1-0.64625 8.3333-0.0204v1.3333l-6.3333-0.02042zm-622.66-2.1667-0.0102-2.5h1.3333l-0.0204 3-1.2925 2zm550.16 0.39181-0.83333-0.33626v-1.8889h3.1111l0.87732 0.87732-0.74251 0.89468-0.74251 0.89467-0.83674-0.1052zm166.5-1.274v-1.0489l2.2228 0.4311 0.27747 0.83333 0.27746 0.83333h-2.7778zm261.16 0.65416-0.45791-0.45792 0.35455-0.57368 0.35456-0.57368h4.6991l-0.27356 0.83334-0.27356 0.83333-3.9452 0.39652zm59.506-10.272v-0.66667h1.3333v1.3333h-1.3333zm-116.7-14.5-0.92841-1.8333-1.1752-1.5784-1.1752-1.5784 0.80119-1.2964 4.442 0.83331 1.4054-2.6259 4e-3 -1.2105 4e-3 -1.2105 2.0168-3.8674-1.0778-1.191-1.0778-1.191 0.87598-1.4174h4.5767l0.83268-1.3333 0.83269-1.3333h4.294l2.3853-2.5274 4.6667-2.1906 4.3894-2.342 1.6386-1.907 1.6386-1.907v-1.4671l3.7001-1.6378 2.2308-3.7765 5.7357-6.1568 2.3026-2.7236 1.8947-4.5346 1.4694-0.90813v-2.5193l3.3655-3.6314 0.7347-2.9273 4.0045-2.9607 37.508 0.1744 0.31173 0.31172 0.31172 0.31172-1.038 0.82645-1.038 0.82644-0.78552 7.1829-0.96218 1.0752-0.96218 1.0752-0.72873 3.9756-0.72872 3.9755-1.9898 1.1135-0.74728 2.9677-0.74727 2.9677h-5.0728l-1.9807-1.6667-1.9807-1.6667h-1.9776l-1.599-1.9267-7.1153-1.4771-0.35679-0.92979-0.3568-0.92979-5.2214-1.406-4.2848 0.85697-1.1269 2.964-2.1021 0.80666v1.4841l-5 6.2244-1.6667 1.0662v2.7252l-2.6667 0.69735v3.0146l2 1.6599v2.4575l6.5521 0.86917 0.3282 1.255 0.3282 1.255h7.4112l1.4272 2.6667h2.0071l3.946 2.9174v1.7493h-1.9693l-2.1187 3.2336-3.9296 1.3699-0.75354 1.9637-5.5331 0.93481-2.6958 1.7379-9.6667 0.93244v-1.2256l-5.3601-5.9229-2.3065 1.6512-2.3333 1.0618-2.3333 1.0618-2.6667 1.2122-2.6667 1.2121-5.3333 1.6176-1.3333 0.97572-3.9187 0.93917-1.8102 1.289-1.8102 1.289h-5.2355zm-344.42-0.63139-1.456-0.28314-0.84048-3.8267-0.9472-0.7861-0.9472-0.78611 0.1338-5.8243 0.13379-5.8243-2.2439-3.4246-3.0436 0.703-5.6667 2.6358v1.0734l-3.9631 4.2425-1.4124-0.87291 0.11527-4.19 0.11527-4.19-2.3103-4.5152-0.73116-10.975 2.2758-9.3634-0.42274-5.5875 4.5237-1.3216 25.476 1.6384 20.188-0.92264 1.1478 0.44044 1.1478 0.44045-1.3153 1.6509-0.45124 3.1197-0.45125 3.1198-2.4382 3.0997-0.24709 1.259-0.24708 1.259-2.6667 1.4762-0.53312 0.83333-0.53313 0.83334h-3.3901l-3.3901-2.6667h-3.7539l-0.53313-0.9507-0.53312-0.95071-4.7461-3.2194-4.1818 3.4911-0.74047 3.3041-0.74046 3.3041-1.9248 2.1269-1.5179 10.734 0.88886 3.5415 3.1666 1.2039 0.87488 1.4156h3.9753l3.6127 2.6649 10 0.33514 15.667-0.33333 1.242-1.242 1.242-1.242 5.123-0.96108 3.7656-3.1685 4.7237-0.88617 1.204-3.1669h1.2237l0.40466 1.0545 0.40466 1.0545v2.511l-2.1159 6.3799-3.1993 6.6667-2.6776 3.1388-5.0072 1.1627-40-0.1498zm549.88-6.0506-12.247-0.18201-3.8396-4.1103v-3.9008l1.9356-0.74273 0.7656-2.3201 0.7657-2.3201 2.1998 0.93212 7.1042 0.66636 1.7941-1.3265 1.7942-1.3265 1.6537-0.51972 1.6538-0.51972 2.8744-2.8147 1.0347-0.83333 1.0346-0.83334h32.056v1.1753l6.2169 2.0467 3.1068-2.0356 5.0096 0.88936 3.3629 0.131 2.5035-1.188 2.5036-1.188 5.63 0.69616 15.994 2.8824 6.0064-1.5094 1-0.90106 1-0.90105 4.6667-0.33735 5.5768 0.23959 0.4416 1.3914 0.4417 1.3914-2.8542 2.659 0.872 10.891-4.2882 3.1462-4.8564 0.56314-80.667 0.29071zm-211.42-1.818v-1.6667h1.0667l1.6 1.6v1.7333h-2.6667zm-3.212-3.3333-0.75939-1.6667h-1.7607l-1.747-4.8312 1.7406-1.0758 2.4052 1.2872v1.6568l2.6667 2.2833v4.013h-1.786zm-573.39-1.7174-1.6012-0.64782 2.6768-2.9681 1.0446-2 1.0446-2 1.3995-3.074 1.3995-3.074-0.38526-1.004-0.38525-1.004 4.1749-6.186 4.5664-3.4829v-2.5084h2.1915l-0.86558 9.3134-2.6542 4.3533-2e-3 0.87782-2e-3 0.87781-1.6148 2.1222-1.6148 2.1222-0.45909 1.8396-0.45909 1.8396-1.1905 0.73578 0.39227 1.563 0.39228 1.563-1.2232 0.34642-1.2232 0.34641-4 0.69661zm-211.74-1.3508-2.6568-1.4015-1.1671-1.0974 0.43133-2.2992 0.43132-2.2992 6.8463-0.90819 3.9897-2.0632 9.4685-1.3064 7.3333-1.995 28-1.3513 2 0.0354 14.667 1.965 21.333 0.39232 15.667-1.0965v-1.3132l-1.6392-3.2635-1.6392-3.2635h6.0963l-0.36087 1.8333-0.36088 1.8333-1.6231 5.3597 4.1774 6.6403-2.6506 1.8293v1.6947l-2.3333 0.99443-54.667 1.1033-18.917 1.3782h-29.77zm779.68-5.2651v-0.66667h1.3333v1.3333h-1.3333zm-527.22-3.5408-1.5312-1.6298-0.37555-3.6387-0.37554-3.6387 0.79514-1.4857 0.79514-1.4857 1.907 1.5827v1.7898l2.6667 1.4272v1.4939l3.3333 4.3702v1.3436l-1.0102 0.62431-4.6737 0.8768zm654.88-0.45924-0.42318-1.3333h-1.9102v-2.524l1.9254-0.73883 1.619-5.4038h1.7263l0.69428-2.5 0.69429-2.5 4e-3 -2.1667 4e-3 -2.1667h2.5689l0.60976-2.3333 0.0773 3.1757 0.0773 3.1757-1.2954 2.3152-2.7046 9.1404v3.0838l-0.40466 1.0545-0.40466 1.0545h-2.4342zm82.333 0.66667v-0.66667h1.3334v1.3333h-1.3334zm-349.9-3.6364-3.5662-1.697h-1.9145l-3.38-2.2146-4.2398-2.3707-5.3333-2.7934-3.3333-1.935-2.1701-0.02-1.576-1.899-8.2982-4.0021-8.3759-0.94762-1.7134-1.7135-7.6034-1.4056-2.0496-2.0496-2.0496-2.0496 2.7275-2.933 0.55433-2.1641 0.55433-2.1641 15.333-0.71641 3.3333 0.0506 3.3333 2.4011 4 1.5399 8.1925 2.053h4.7288l0.41202-0.66667 0.41203-0.66666h3.8744l1.3329 2.4905 4.0474 0.80948v1.8193l3.4641 1.5783-0.6408 1.6699-0.78457 3.7793-0.78457 3.7792 2.3817 3.7406 0.68207 0.48979 0.68206 0.48979 2.9294 0.0204 6.2334-3.3143 3.1069-3.3524h1.2486l0.43773-2.3333 0.43774-2.3333h1.1062l0.41667 2.0833 0.41666 2.0833v5.5621l-1.9961 2.6045-3.9151 5.0716-3.3124 2.6056-5.7764 0.71675zm-245.65-2.8613-1.1644-1.1644-21.848-0.67121-0.2563-0.33333-0.25629-0.33333-2.3502-3.7526 0.87752-3.9954 5.5429-4.0173 1.8906-0.37883 1.8906-0.37882 0.33422-0.87096 0.33422-0.87095 6.4385-2.1385 1.5696-1.5696 1.5696-1.5696 7.7937-1.4407 0.58948 0.36431 0.58947 0.36431v19.755l-0.41667 2.0833-0.41666 2.0833h-1.5476zm-597.41-0.18116-3.9558-0.50407-3.7568-4.4837 0.16755-2.6667 0.16755-2.6667 5.5978-1.3508 3.3276-3.0555 3.3276-3.0555 12.414-1.5876 5.3333-1.1999 5.3333-1.3773 15.333-1.1322 1 0.50413-0.0102 6.1273-0.0102 6.1273-0.5204 0.8192-0.5204 0.81919-1.1295-1.3192-1.1295-1.3192h-1.9661l-1.3441-2.5115-4.7028-0.88225v-2.0076l-4.4973-1.8791-0.35559-1.3598-0.35558-1.3598h-1.4582v3.2546l-1.3333 0.82405v2.2672l-2.6667 1.6654v1.8988l-2.6667 0.84636v1.8989l-2.6667 1.6654v1.3859l-4.3333 3.993-3.6198 2.3004-5.0469-0.1748zm107.28-2.1379-2.9933-2.8168v-1.6529l-2.6667-1.4272v-2.5299l-2.5985-0.82472-0.41259-1.2999-0.41258-1.2999-2.5764-1.3788v-1.8632l-2.6163-0.83038-3.0504 1.6188-0.87113 1.2275-0.87114 1.2275h-2.2947l-2.252 2.6301-3.711 0.91871-1.7423 2.4512h-2.5124l-0.97536 1.5782-1.0096-2.5782-0.0469-7.2664-0.0469-7.2664 17.667 1.1986 22 0.0368 4 2.289 5.4118 8e-3 2.5882 1.9576 2.3333 0.0424 0.1756 3 0.47455-2 0.47454-2 1.0309-3h1.6732l0.49792 5.5 0.49793 5.5 0.1754 7.6013-0.77176 0.77112-0.77176 0.77111-14.685 1.0867-2.684 1.4365h-3.4344zm602.13-0.68322 0.14798-3.5 0.1032-2 1.148 2-0.34574 3.5-0.34573 3.5h-0.85568zm215.59-2.9444 0.0469-1.2222 1.0965-2.6667 0.46128 1.1277 0.46127 1.1277-0.22305 1.1504-0.22305 1.1504-1.6667 0.55494zm-493.03-6.3904-0.49699-1.1682 0.83586-3.3304h1.3079l-0.0665 1.1667-0.0664 1.1667-1.0169 3.3333zm142.33-6.1318-0.0203-1.9667 1.4715 1.4715-0.71547 1.2309-0.71548 1.2309zm138.17-1.3667 9e-3 -3.3333 0.27861 1.8425 0.27862 1.8425-0.28772 1.4908-0.28771 1.4908zm405.14 2.0787v-1l1.3333-0.82404v2l-0.66666 0.41202-0.66667 0.41202zm-679.62-9.6769-0.3697-0.5982 0.43146-2.1573 0.43147-2.1573 2.4316-0.63588 0.4017-2.4265 0.40171-2.4265 0.55336-1.7512 0.69183 0.42757 0.69183 0.42758-0.45388 2.4194-0.45389 2.4194-1.6154 3.5286-1.6154 3.5286h-1.1569zm376.96-6.3529v-1.0489h2.7778l-0.55494 1.6667-2.2228 0.4311zm-367.78-18.76-0.40093-1.0448 1.5104-1.5104 1.5104 1.5104-0.40094 1.0448-0.40093 1.0448h-1.417zm-373.88-0.27475-0.40351-0.65289 1.5288-2.8567 2.6946 2.6946-0.90716 1.4678h-2.5093z" fill="#57544f"/></g></svg>
